<?xml version="1.0" encoding="UTF-8" standalone="no"?>
<svg
   width="24"
   height="24"
   version="1.1"
   id="svg1"
   sodipodi:docname="github.svg"
   inkscape:version="1.3 (0e150ed, 2023-07-21)"
   xmlns:inkscape="http://www.inkscape.org/namespaces/inkscape"
   xmlns:sodipodi="http://sodipodi.sourceforge.net/DTD/sodipodi-0.dtd"
   xmlns="http://www.w3.org/2000/svg"
   xmlns:svg="http://www.w3.org/2000/svg">
  <defs
     id="defs1" />
  <sodipodi:namedview
     id="namedview1"
     pagecolor="#ffffff"
     bordercolor="#000000"
     borderopacity="0.25"
     inkscape:showpageshadow="2"
     inkscape:pageopacity="0.0"
     inkscape:pagecheckerboard="0"
     inkscape:deskcolor="#d1d1d1"
     inkscape:zoom="8.2304282"
     inkscape:cx="4.7992643"
     inkscape:cy="15.066045"
     inkscape:window-width="1312"
     inkscape:window-height="411"
     inkscape:window-x="0"
     inkscape:window-y="43"
     inkscape:window-maximized="0"
     inkscape:current-layer="svg1" />
  <path
     fill-rule="evenodd"
     clip-rule="evenodd"
     d="M 12.009929,0.19996274 C 5.3687489,0.19996274 1.6709944e-7,5.6082905 1.6709944e-7,12.29913 1.6709944e-7,17.647474 3.4399425,22.174736 8.2120543,23.777076 8.8086912,23.897535 9.0272368,23.516739 9.0272368,23.196419 9.0272368,22.915923 9.0075702,21.95447 9.0075702,20.9527 5.6666986,21.673974 4.970991,19.510397 4.970991,19.510397 4.4340915,18.108166 3.6385757,17.747774 3.6385757,17.747774 2.5451101,17.006588 3.7182256,17.006588 3.7182256,17.006588 4.931166,17.086729 5.5676279,18.248536 5.5676279,18.248536 6.6411809,20.091301 8.3711083,19.570627 9.0670618,19.25006 9.1663783,18.468803 9.4847322,17.92797 9.8227527,17.627562 7.1581679,17.347066 4.3546874,16.305472 4.3546874,11.657997 4.3546874,10.335907 4.8316036,9.254241 5.5872945,8.4130002 5.4680655,8.1125921 5.050395,6.8703976 5.7067694,5.2078284 5.7067694,5.2078284 6.7208308,4.8872621 9.0073243,6.4497772 A 11.54678,11.54678 0 0 1 12.009929,6.0490692 C 13.023991,6.0490692 14.057719,6.1894399 15.012289,6.4497772 17.299028,4.8872621 18.31309,5.2078284 18.31309,5.2078284 18.969464,6.8703976 18.551548,8.1125921 18.432319,8.4130002 19.207922,9.254241 19.665172,10.335907 19.665172,11.657997 19.665172,16.305472 16.861691,17.326908 14.177194,17.627562 14.614777,18.008111 14.992376,18.72914 14.992376,19.871035 14.992376,21.493533 14.97271,22.795711 14.97271,23.196173 14.97271,23.516739 15.191501,23.897535 15.787892,23.777322 20.560004,22.174491 23.999946,17.647474 23.999946,12.29913 24.019613,5.6082905 18.631198,0.19996274 12.009929,0.19996274 Z"
     fill="#24292f"
     id="path1"
     style="stroke-width:0.245833" />
</svg>
