<svg width="91" height="56" viewBox="0 0 91 56" fill="none" xmlns="http://www.w3.org/2000/svg">
<g id="Group 44">
<g id="Group 40">
<g id="logo">
<path id="Path" d="M19.93 27.7969C19.6991 28.5157 19.2655 29.1525 18.6812 29.6307C17.8814 30.2623 16.8837 30.5901 15.8652 30.5558C15.076 30.5681 14.2964 30.3809 13.5988 30.0116C12.9447 29.6587 12.407 29.1238 12.0507 28.4717C11.6641 27.7447 11.4711 26.9305 11.4902 26.1073C11.4671 25.2831 11.6544 24.4666 12.0343 23.7348C12.3886 23.0804 12.9268 22.5441 13.5825 22.1921C14.2833 21.8235 15.0653 21.6364 15.857 21.6479C16.8756 21.6137 17.8733 21.9414 18.673 22.573C19.224 23.0223 19.641 23.6143 19.8783 24.2844L17.2963 25.1251C17.2311 24.7833 17.0494 24.4746 16.7821 24.2517C16.5016 24.0377 16.1552 23.928 15.8026 23.9416C15.354 23.9317 14.9267 24.1332 14.649 24.4857C14.3192 24.9553 14.1607 25.5239 14.2001 26.0964C14.1607 26.6689 14.3192 27.2376 14.649 27.7071C14.9267 28.0597 15.354 28.2612 15.8026 28.2513C16.1552 28.2649 16.5016 28.1552 16.7821 27.9411C17.0494 27.7182 17.2311 27.4096 17.2963 27.0677" fill="#132321"/>
<path id="Path_2" d="M34.1088 22.1893C34.6236 21.8793 35.2139 21.7174 35.8148 21.7213V24.57H35.0502C34.4711 24.5356 33.8969 24.6945 33.4178 25.0216C33.0278 25.3209 32.8328 25.8288 32.8328 26.5453V29.4103C32.8328 30.0113 32.3455 30.4986 31.7445 30.4986H30.1719V21.8138H32.8328V23.4463C33.1508 22.9308 33.5886 22.4996 34.1088 22.1893Z" fill="#132321"/>
<path id="Path_3" d="M41.6087 27.8486L43.2547 22.5295C43.3955 22.0735 43.8169 21.7624 44.2941 21.7622H46.3238L43.2439 30.4469H39.9436L36.8555 21.7622H38.8906C39.3653 21.7629 39.7848 22.0712 39.9272 22.524L41.6087 27.8486Z" fill="#132321"/>
<path id="Shape" fill-rule="evenodd" clip-rule="evenodd" d="M62.3085 23.3351C62.089 22.8271 61.7198 22.3981 61.2501 22.1053C60.7356 21.7878 60.1405 21.6253 59.536 21.6373C58.8568 21.6305 58.1899 21.8194 57.6152 22.1815C57.0327 22.5595 56.5687 23.0942 56.2765 23.7242C55.9341 24.4672 55.7666 25.2788 55.7868 26.0967C55.768 26.9118 55.9355 27.7205 56.2765 28.4611C56.567 29.0943 57.0312 29.632 57.6152 30.0119C58.1899 30.374 58.8568 30.5629 59.536 30.5561C60.1389 30.573 60.7339 30.4162 61.2501 30.1044C61.7198 29.8117 62.089 29.3826 62.3085 28.8746V30.3846C62.3085 31.0794 62.1398 31.5845 61.8024 31.9001C61.439 32.2278 60.9609 32.3989 60.472 32.3763C60.0638 32.3955 59.6592 32.2922 59.3102 32.0797C59.0218 31.8923 58.8186 31.5992 58.7443 31.2635H56.1133C56.2314 32.2551 56.7383 33.1593 57.5227 33.7775C58.3062 34.3942 59.351 34.7025 60.657 34.7025C61.4933 34.7325 62.322 34.534 63.054 34.1284C63.6763 33.7674 64.1751 33.2269 64.4851 32.5776C64.804 31.8969 64.9641 31.1526 64.9531 30.401V22.8508C64.9531 22.2497 64.4658 21.7625 63.8648 21.7625H62.3085V23.3351ZM58.4961 26.1103C58.4622 25.5435 58.6494 24.9856 59.0185 24.554V24.5676C59.7821 23.8153 61.0083 23.8153 61.7719 24.5676C62.1501 24.9918 62.3457 25.5482 62.3161 26.1157C62.3415 26.6802 62.1463 27.2325 61.7719 27.6557C61.0107 28.4139 59.7797 28.4139 59.0185 27.6557C58.6521 27.2269 58.465 26.6734 58.4961 26.1103Z" fill="#132321"/>
<path id="Shape_2" fill-rule="evenodd" clip-rule="evenodd" d="M74.5889 23.7372C74.2135 23.0787 73.6574 22.5415 72.9864 22.189V22.1918C71.527 21.479 69.8205 21.479 68.3611 22.1918C67.686 22.5416 67.1266 23.0792 66.7504 23.7399C66.3485 24.4629 66.1466 25.28 66.1654 26.107C66.1456 26.9332 66.3476 27.7496 66.7504 28.4713C67.1257 29.1334 67.6853 29.6721 68.3611 30.0222C69.8205 30.7349 71.527 30.7349 72.9864 30.0222C73.6581 29.6695 74.2144 29.1312 74.5889 28.4713C74.9912 27.7485 75.1922 26.9311 75.1712 26.1042C75.1908 25.2775 74.9898 24.4605 74.5889 23.7372ZM68.872 26.1049C68.8318 25.5257 69.0192 24.9536 69.3944 24.5105C69.7216 24.1556 70.185 23.9575 70.6677 23.9664C71.152 23.9535 71.6178 24.1522 71.9437 24.5105C72.3176 24.9545 72.5058 25.5256 72.4689 26.1049C72.5095 26.6803 72.3251 27.249 71.9546 27.6911C71.6276 28.048 71.1625 28.2463 70.6786 28.2353C70.1925 28.2452 69.7254 28.0472 69.3944 27.6911C69.0189 27.2514 68.8313 26.6817 68.872 26.1049Z" fill="#132321"/>
<path id="Shape_3" fill-rule="evenodd" clip-rule="evenodd" d="M21.6357 23.0168C21.3576 23.3921 21.1713 23.8272 21.0915 24.2874L23.6436 24.6384L23.6681 24.5105C23.7128 24.2512 23.8586 24.0203 24.0735 23.8684C24.3229 23.7036 24.6183 23.6226 24.9169 23.6371C25.1952 23.6226 25.4702 23.7021 25.6978 23.8629C25.8945 24.0185 26.0031 24.2601 25.9889 24.5105V24.5323C25.9948 24.6934 25.9178 24.8464 25.7849 24.9377C25.5864 25.0599 25.3635 25.137 25.1319 25.1635C24.8326 25.2152 24.4353 25.2641 23.9429 25.305C23.5242 25.3395 23.1098 25.4133 22.7049 25.5253C22.3376 25.622 21.9897 25.7813 21.6765 25.996C21.3794 26.2045 21.1405 26.4855 20.9827 26.8123C20.8061 27.1918 20.7204 27.6073 20.7324 28.0257C20.7132 28.5263 20.8398 29.0216 21.0969 29.4514C21.3413 29.8263 21.6918 30.1199 22.1036 30.2949C22.5695 30.4855 23.0696 30.5781 23.5729 30.5669C23.9348 30.5721 24.2955 30.5216 24.6421 30.4173C24.9495 30.3252 25.2354 30.1726 25.4828 29.9684C25.7308 29.7569 25.935 29.499 26.0841 29.2093H26.1522V30.42H27.7166C28.3177 30.42 28.8049 29.9328 28.8049 29.3317V24.5268C28.816 24.1104 28.7225 23.6978 28.5328 23.3269C28.3387 22.9687 28.0651 22.6597 27.7329 22.4236C27.3623 22.1608 26.9477 21.9664 26.5086 21.8496C26.0029 21.7145 25.4812 21.6486 24.9577 21.6537C24.2649 21.635 23.5756 21.7601 22.9335 22.021C22.4198 22.2311 21.9716 22.575 21.6357 23.0168ZM25.2418 28.5698C25.0026 28.6879 24.7387 28.7476 24.4719 28.7439C24.2039 28.7504 23.9412 28.6692 23.7236 28.5127C23.525 28.3644 23.4145 28.1261 23.4298 27.8787C23.4251 27.7119 23.4716 27.5476 23.5631 27.408C23.6652 27.2655 23.8019 27.1513 23.9604 27.0761C24.166 26.98 24.3854 26.9166 24.6106 26.8884L25.0024 26.8258C25.1357 26.804 25.2663 26.7768 25.3915 26.7496C25.51 26.7237 25.6271 26.692 25.7425 26.6544C25.8349 26.6226 25.9257 26.5863 26.0145 26.5455V27.359C26.0199 27.6168 25.9468 27.8701 25.805 28.0855C25.6624 28.2929 25.4683 28.4598 25.2418 28.5698Z" fill="#132321"/>
<path id="Shape_4" fill-rule="evenodd" clip-rule="evenodd" d="M47.3273 23.0174C47.0493 23.3926 46.8629 23.8278 46.7832 24.288L49.3434 24.6389L49.3679 24.5111C49.4086 24.2529 49.5493 24.0213 49.7597 23.8662C50.009 23.7011 50.3045 23.6201 50.6031 23.635C50.8813 23.6208 51.1563 23.7004 51.384 23.8608C51.5807 24.0164 51.6893 24.258 51.6751 24.5083V24.5301C51.681 24.6913 51.604 24.8443 51.4711 24.9355C51.272 25.0565 51.0494 25.1335 50.8181 25.1613C50.5161 25.213 50.1216 25.262 49.6291 25.3028C49.2096 25.3373 48.7942 25.4111 48.3884 25.5232C48.0232 25.6224 47.6774 25.7825 47.3654 25.9966C47.0698 26.2059 46.832 26.4868 46.6743 26.8128C46.4965 27.192 46.4107 27.6078 46.424 28.0263C46.4036 28.527 46.5303 29.0226 46.7886 29.452C47.0329 29.8269 47.3834 30.1205 47.7953 30.2954C48.2602 30.4861 48.7594 30.5787 49.2618 30.5675C49.6246 30.5724 49.9861 30.522 50.3338 30.4179C50.6406 30.3264 50.9256 30.1737 51.1718 29.9689C51.4214 29.7584 51.6267 29.5004 51.7758 29.2098H51.8438V30.4206H53.4083C54.0093 30.4206 54.4966 29.9333 54.4966 29.3323V24.5274C54.5064 24.1111 54.4129 23.6988 54.2245 23.3275C54.0304 22.9693 53.7567 22.6602 53.4246 22.4242C53.0534 22.1623 52.639 21.9679 52.2002 21.8501C51.6945 21.715 51.1728 21.6491 50.6494 21.6542C49.9565 21.6351 49.2671 21.7602 48.6251 22.0215C48.1114 22.2317 47.6633 22.5756 47.3273 23.0174ZM50.9331 28.5706C50.693 28.6891 50.4281 28.7488 50.1604 28.7448C49.8943 28.7503 49.6336 28.6691 49.4176 28.5135C49.2184 28.3655 49.1069 28.1273 49.1211 27.8795C49.1171 27.7124 49.1646 27.5481 49.2571 27.4088C49.3592 27.2663 49.4959 27.1521 49.6543 27.0769C49.86 26.9808 50.0794 26.9175 50.3046 26.8892L50.6964 26.8266C50.8297 26.8048 50.9603 26.7776 51.0855 26.7504C51.2032 26.7249 51.3194 26.6931 51.4337 26.6552C51.5263 26.6237 51.6171 26.5874 51.7058 26.5464V27.3599C51.7116 27.6181 51.6374 27.8718 51.4936 28.0863C51.3526 28.2942 51.1593 28.4613 50.9331 28.5706Z" fill="#132321"/>
<path id="Path_4" d="M75.8789 28.9534C75.9027 28.0831 76.6246 27.3952 77.4951 27.4134C78.3374 27.4485 79.0023 28.1416 79.0023 28.9847C79.0023 29.8278 78.3374 30.5209 77.4951 30.5559C77.067 30.5618 76.6546 30.3953 76.3507 30.0939C76.0467 29.7925 75.8767 29.3815 75.8789 28.9534Z" fill="#132321"/>
</g>
</g>
</g>
</svg>
