<svg width="91" height="56" viewBox="0 0 91 56" fill="none" xmlns="http://www.w3.org/2000/svg">
<g id="Group 26">
<g id="logo">
<path id="Path" d="M45.5637 15.2729C44.9616 15.2729 44.3595 15.2956 43.7575 15.2956C43.2248 15.3182 42.6459 15.3409 42.1364 15.3862V16.4957V16.5637V16.5863V19.5527C42.6691 19.53 43.2248 19.5074 43.7575 19.5074V16.4504C43.7806 16.4504 43.8038 16.4504 43.8269 16.4504C44.4753 16.4278 45.1237 16.4052 45.7721 16.4052C54.2477 16.4052 61.1255 18.8733 61.1255 21.9303C61.1255 24.9872 54.2477 27.4554 45.7721 27.4554C45.0774 27.4554 44.4059 27.4328 43.7343 27.4101V20.6396C43.1785 20.6622 42.6459 20.6849 42.1133 20.7075V27.2969V28.4744C42.6459 28.5197 43.2017 28.5423 43.7343 28.565C44.3364 28.5876 44.9153 28.5876 45.5406 28.5876C55.753 28.5876 64.0433 25.5986 64.0433 21.9303C64.0665 18.262 55.7761 15.2729 45.5637 15.2729Z" fill="#132321"/>
<path id="Path_2" d="M44.4976 19.5806C44.1546 19.5806 43.8344 19.5806 43.4914 19.5806C42.9426 19.5806 42.4166 19.6032 41.8907 19.6258C37.6144 19.7842 33.8412 20.35 31.1429 21.1421C29.7708 21.5494 28.6732 22.0247 27.9414 22.5225C27.2325 23.0204 26.8438 23.5409 26.8438 24.0841C26.8438 26.3471 33.3839 28.2481 41.8907 28.5876V28.4744V27.5692V27.4334C35.3505 27.1618 30.091 26.0303 30.091 24.333C30.091 23.9256 30.3654 23.5409 30.8913 23.1788C32.5149 22.0247 36.9284 21.1421 41.9135 20.8479C42.4395 20.8253 42.9654 20.8026 43.5143 20.78C44.1088 20.7574 44.7034 20.7574 45.3208 20.7574C48.6366 20.7574 51.678 21.0289 54.1477 21.4589L55.0396 20.4632C52.0896 19.92 48.4537 19.5806 44.4976 19.5806Z" fill="#132321"/>
<rect id="Rectangle" x="19.0078" y="33.6782" width="2.34965" height="0.783217" fill="#132321"/>
<path id="Shape" fill-rule="evenodd" clip-rule="evenodd" d="M21.1551 39.6299L21.178 39.6201H21.1551V39.6299ZM21.1551 39.6299C20.7971 39.7811 20.4588 39.846 20.0327 39.846C19.0018 39.846 18.1313 39.3264 18.1313 37.8127C18.1313 36.3216 18.9102 35.7793 20.0097 35.7793C20.4221 35.7793 20.8115 35.8697 21.1551 36.0053V35.0112C20.8115 34.9208 20.3763 34.853 20.0097 34.853C18.452 34.853 17.0547 35.7341 17.0547 37.8127C17.0547 39.9138 18.4062 40.7272 19.9639 40.7272C20.3763 40.7272 20.7886 40.6368 21.1551 40.4786V39.6299ZM22.9798 40.6746C22.745 40.6452 22.4998 40.6146 22.1178 40.6146H22.0948V35.0115C22.4386 35.0115 22.7494 34.9921 23.0379 34.974C23.2878 34.9584 23.5209 34.9438 23.7442 34.9438C25.3248 34.9438 26.5847 35.7119 26.5847 37.8131C26.5847 39.9142 25.2561 40.7275 23.6984 40.7275C23.4022 40.7275 23.1954 40.7016 22.9798 40.6746ZM23.0792 37.5191C23.0792 37.0874 23.0879 36.7157 23.0946 36.4306C23.0988 36.2532 23.1021 36.1094 23.1021 36.0054C23.1021 35.8472 23.2167 35.7795 23.7206 35.7795C24.8431 35.7795 25.5761 36.4121 25.5761 37.858C25.5761 39.3265 24.866 39.8913 23.6977 39.8913C23.4457 39.8913 23.0792 39.8688 23.0792 39.7106V37.5191ZM29.3568 38.6713H27.2035V37.8354H29.3568V38.6713ZM33.821 35.0116H29.4457V35.8927C29.8122 35.8701 30.3162 35.8475 31.0263 35.8475C31.095 35.8475 31.1408 35.8701 31.1408 35.9379V40.6372H32.1029V37.5419C32.1029 36.5479 32.1029 36.2993 32.1259 35.983C32.1259 35.9153 32.1488 35.8475 32.2404 35.8475C32.9963 35.8475 33.4545 35.8475 33.821 35.8927V35.0116ZM37.6936 39.756V40.6146V40.6372H34.395V35.0116H37.6478V35.8249C37.2126 35.7797 36.5024 35.7797 35.5174 35.7797C35.4487 35.7797 35.38 35.8023 35.38 35.9379C35.3571 36.209 35.3571 36.7512 35.3571 37.2256H37.3958V38.0616H35.3571V39.5979C35.3571 39.6883 35.4029 39.7786 35.5174 39.7786C36.5254 39.7786 37.1439 39.7786 37.6936 39.756ZM38.7016 35.0116V40.6373H41.8628V39.7561C41.4963 39.7787 40.9007 39.7787 39.8241 39.7787C39.7095 39.7787 39.6637 39.7109 39.6637 39.6206V37.5194C39.6637 36.8204 39.6712 36.3143 39.6777 35.8819C39.6824 35.5597 39.6866 35.2785 39.6866 34.9891H38.7016V35.0116ZM45.8055 39.756V40.6146V40.6372H42.5297V35.0116H45.7597V35.8249C45.3244 35.7797 44.6143 35.7797 43.6293 35.7797C43.5606 35.7797 43.4918 35.8023 43.4918 35.9379C43.4689 36.209 43.4689 36.7512 43.4689 37.2256H45.5077V38.0616H43.4689V39.5979C43.4689 39.6883 43.5147 39.7786 43.6293 39.7786C44.6372 39.7786 45.2557 39.7786 45.8055 39.756ZM51.5974 40.6147H52.6282C52.5595 40.1629 52.4908 39.101 52.4221 37.9714L52.2388 34.9891H51.2309L49.719 38.717C49.6961 38.7847 49.6503 38.8751 49.6045 38.8751C49.5739 38.8751 49.5536 38.8349 49.5298 38.7881C49.5179 38.7647 49.5052 38.7395 49.4899 38.717C49.1463 37.9036 48.5736 36.3447 48.1155 34.9666H46.993L46.6723 40.5922H47.6802C47.6802 39.9596 47.749 37.8584 47.8177 36.7062L49.215 40.3888H49.9939C50.0572 40.2254 50.1392 40.0119 50.2333 39.7671L50.2355 39.7612L50.2357 39.7607L50.239 39.7521L50.2395 39.7508L50.2397 39.7504C50.5876 38.8444 51.0965 37.5194 51.4371 36.7062L51.5974 40.6147ZM55.5901 36.6647C55.3812 37.2201 55.15 37.8346 54.9893 38.3101H56.3867C56.1805 37.7001 55.9285 37.0449 55.6765 36.4349L55.5901 36.6647ZM54.1426 40.6147L54.6924 39.1236H56.6624C56.8228 39.5981 57.006 40.1629 57.1435 40.6147H58.2201L56.1584 34.9666H55.2651C54.9214 36.051 53.8448 38.8977 53.1118 40.6147H54.1426ZM58.0381 35.0116H62.4135V35.8927C62.047 35.8475 61.5888 35.8475 60.8329 35.8475C60.7412 35.8475 60.7183 35.9153 60.7183 35.983C60.6954 36.2993 60.6954 36.5479 60.6954 37.5419V40.6372H59.7333V35.9379C59.7333 35.8701 59.6875 35.8475 59.6188 35.8475C58.9086 35.8475 58.4047 35.8701 58.0381 35.8927V35.0116ZM62.9828 35.0116V40.6372H63.945V37.5419C63.945 36.5931 63.945 35.6667 63.9679 35.0116H62.9828ZM69.5587 35.0112L67.5887 37.5868L69.6117 40.3718C69.5769 40.4548 69.5426 40.5357 69.5091 40.6142H68.7111L66.6724 38.1064C66.5349 37.9257 66.3975 37.8805 66.3059 37.8805V40.6142H65.3438V34.9886H66.3517C66.3288 35.6438 66.3288 36.5023 66.3288 37.4512C66.4433 37.4512 66.5808 37.406 66.7869 37.1349L68.505 35.0112H69.5587ZM69.5091 40.6142C69.509 40.6144 69.5089 40.6146 69.5089 40.6147H70.5397L71.0895 39.1236H73.0595C73.2199 39.5981 73.4031 40.1629 73.5406 40.6147H74.6172L72.5555 34.9666H71.6622C71.3343 36.0013 70.3391 38.6404 69.6117 40.3718L69.7878 40.6142H69.5091ZM71.3911 38.3101C71.5518 37.8346 71.7829 37.2201 71.9919 36.6647L72.0783 36.4349C72.3303 37.0449 72.5822 37.7001 72.7884 38.3101H71.3911Z" fill="#132321"/>
</g>
</g>
</svg>
