<svg width="90" height="56" viewBox="0 0 90 56" fill="none" xmlns="http://www.w3.org/2000/svg">
<g id="Group 14">
<g id="logo_cisco-grande">
<path id="Shape" fill-rule="evenodd" clip-rule="evenodd" d="M58.9521 38.0944C61.2468 38.0967 62.9978 36.3864 62.9978 34.1371C63.0001 31.8878 61.2538 30.17 58.9637 30.1665C56.6735 30.163 54.9191 31.8739 54.918 34.1261C54.9168 36.3783 56.6573 38.0921 58.9521 38.0944ZM58.9713 32.1233C60.094 32.1291 60.9519 33.0023 60.9524 34.136C60.9506 35.2702 60.0694 36.1531 58.9452 36.1491C57.8338 36.1433 56.9641 35.2568 56.9641 34.1289C56.9664 32.9895 57.8483 32.1175 58.9713 32.1233ZM60.9524 34.136C60.9524 34.1364 60.9524 34.1367 60.9524 34.1371V34.1359C60.9524 34.1359 60.9524 34.136 60.9524 34.136Z" fill="#132321"/>
<path id="Path" d="M39.914 37.0127C39.914 36.7806 39.9233 36.5486 39.9105 36.32C39.9018 36.1616 39.9372 36.1262 40.0978 36.1697C40.7356 36.3438 41.3843 36.4389 42.0482 36.396C42.2967 36.3885 42.5411 36.3313 42.7671 36.2277C43.2309 35.9991 43.2715 35.5054 42.8552 35.2003C42.628 35.0338 42.3607 34.9554 42.0969 34.8731C41.6168 34.7234 41.1518 34.5458 40.7356 34.2511C39.4925 33.371 39.6682 31.355 40.953 30.6066C41.52 30.2764 42.1357 30.1616 42.7787 30.1656C43.35 30.1763 43.9187 30.2446 44.4763 30.3693C44.5923 30.3936 44.6328 30.4377 44.6305 30.5625C44.6213 31.0069 44.6236 31.4518 44.6305 31.8968C44.6305 32.0129 44.6073 32.0401 44.4856 32.01C43.9638 31.8806 43.4362 31.7872 42.8941 31.8202C42.6505 31.8253 42.4118 31.8894 42.1984 32.0071C41.8615 32.2078 41.8273 32.5872 42.1224 32.846C42.2963 32.998 42.5103 33.0682 42.7242 33.1395C43.1063 33.2672 43.4994 33.3635 43.8612 33.5491C44.6729 33.9645 45.1604 34.5998 45.1645 35.5327C45.1691 36.5062 44.7413 37.2395 43.8629 37.6892C43.3411 37.9572 42.7764 38.0686 42.1949 38.09C41.4771 38.1167 40.7669 38.032 40.0595 37.916C39.9436 37.898 39.9076 37.8545 39.9117 37.7419C39.9204 37.4977 39.914 37.2552 39.914 37.0127Z" fill="#132321"/>
<path id="Path_2" d="M52.8774 32.4912C52.3291 32.2068 51.7163 32.07 51.0992 32.0944C49.9947 32.1362 49.1639 32.9774 49.139 34.0919C49.0981 35.1732 49.9261 36.09 51.0053 36.1584C51.6062 36.2049 52.2089 36.0924 52.7527 35.8324C52.7882 35.8051 52.8329 35.7927 52.8774 35.7975V37.4023C52.8774 37.8316 52.8774 37.8351 52.4478 37.9349C51.3752 38.1826 50.3136 38.1814 49.2996 37.7074C47.8791 37.0431 47.1283 35.9055 47.0529 34.3425C46.9862 32.9594 47.4704 31.8055 48.5928 30.9625C49.3848 30.3678 50.2979 30.1439 51.2783 30.1711C51.7746 30.1857 52.267 30.2636 52.7434 30.4032C52.8142 30.4235 52.8809 30.4334 52.8803 30.5419C52.8745 31.1806 52.8774 31.824 52.8774 32.4912Z" fill="#132321"/>
<path id="Path_3" d="M32.7116 32.4917C32.1632 32.2063 31.5498 32.0695 30.9322 32.0948C29.8214 32.1372 28.9905 32.9877 28.9737 34.1132C28.9569 35.2039 29.7559 36.0742 30.8453 36.1594C31.4812 36.2068 32.1178 36.0782 32.6855 35.7876C32.7301 35.8369 32.7104 35.8902 32.7104 35.9384C32.7104 36.5104 32.7104 37.0825 32.7139 37.6539C32.7139 37.7746 32.6895 37.8338 32.5591 37.8692C31.3995 38.1778 30.2516 38.2248 29.1384 37.7102C27.6965 37.0395 26.9526 35.8798 26.8871 34.296C26.8343 33.0225 27.2663 31.9388 28.2479 31.1051C28.8775 30.569 29.6202 30.2865 30.4365 30.1983C31.1504 30.1281 31.8712 30.1956 32.5597 30.3973C32.6698 30.428 32.7162 30.4681 32.7145 30.594C32.7075 31.2153 32.7116 31.839 32.7116 32.4917Z" fill="#132321"/>
<path id="Path_4" d="M35.3673 23.8831C35.3673 25.5462 35.3673 27.2093 35.3673 28.8724C35.3673 29.3882 35.0687 29.7821 34.6136 29.8779C34.0164 30.0032 33.4772 29.5808 33.4453 28.9618C33.4453 28.9212 33.4453 28.8811 33.4453 28.8405C33.4453 25.5197 33.4453 22.199 33.4453 18.8786C33.4453 18.4922 33.5711 18.1743 33.9091 17.9683C34.2018 17.7753 34.5793 17.7681 34.8791 17.9497C35.2171 18.1395 35.3719 18.4423 35.3725 18.8235C35.3744 20.2325 35.3744 21.6417 35.3725 23.0511C35.369 23.3304 35.3673 23.6077 35.3673 23.8831Z" fill="#132321"/>
<path id="Path_5" d="M54.5242 23.8617C54.5242 22.1866 54.5242 20.5115 54.5242 18.8364C54.5242 18.3096 54.8269 17.9302 55.3064 17.8437C55.5799 17.7928 55.862 17.864 56.0787 18.0387C56.2954 18.2133 56.4249 18.474 56.4334 18.7523C56.4334 18.7981 56.4334 18.8445 56.4334 18.8909C56.4334 22.2067 56.4334 25.5226 56.4334 28.8384C56.4437 29.0529 56.3919 29.2657 56.2844 29.4516C56.0601 29.8117 55.6258 29.9812 55.2171 29.8681C54.8 29.7547 54.5134 29.3723 54.5213 28.9399C54.5173 27.5533 54.5213 26.1673 54.5213 24.7807C54.5233 24.4744 54.5242 24.1681 54.5242 23.8617Z" fill="#132321"/>
<path id="Path_6" d="M37.307 34.1244C37.307 35.3427 37.307 36.5611 37.3105 37.7794C37.3105 37.9268 37.2681 37.9604 37.1272 37.9581C36.5904 37.95 36.0535 37.9517 35.5166 37.9581C35.4059 37.9581 35.3711 37.9314 35.3711 37.8154C35.3746 35.3605 35.3746 32.9057 35.3711 30.4508C35.3711 30.3302 35.403 30.2948 35.5247 30.2959C36.0558 30.3023 36.5869 30.3046 37.118 30.2959C37.2687 30.2959 37.3116 30.3296 37.311 30.4851C37.3035 31.6988 37.307 32.9113 37.307 34.1244Z" fill="#132321"/>
<path id="Path_7" d="M61.6992 24.7173C61.6992 25.497 61.705 26.2762 61.6992 27.0559C61.694 27.545 61.3397 27.9169 60.8399 27.9842C60.3803 28.0391 59.9485 27.7531 59.8195 27.3083C59.7914 27.2141 59.7766 27.1165 59.7755 27.0182C59.7728 25.4823 59.7728 23.9462 59.7755 22.41C59.7755 22.0039 59.9598 21.697 60.3303 21.5235C60.6863 21.357 61.0295 21.4075 61.3391 21.643C61.5884 21.8345 61.7015 22.0996 61.7015 22.4129C61.7015 23.181 61.7015 23.949 61.7015 24.7167L61.6992 24.7173Z" fill="#132321"/>
<path id="Path_8" d="M28.1815 24.7063C28.1815 23.9381 28.1774 23.17 28.1815 22.4019C28.1773 21.9743 28.4561 21.5954 28.8655 21.4726C29.2748 21.3499 29.716 21.5128 29.9475 21.8722C30.0514 22.0334 30.1057 22.2216 30.1035 22.4135C30.1035 23.9439 30.1069 25.475 30.1035 27.0055C30.1035 27.57 29.6721 28.001 29.137 27.9952C28.6018 27.9894 28.1838 27.5618 28.1815 26.9939C28.1786 26.2309 28.1815 25.4686 28.1815 24.7063Z" fill="#132321"/>
<path id="Path_9" d="M38.713 24.7138C38.713 23.9456 38.7084 23.1775 38.713 22.4094C38.7165 22.0033 38.9003 21.6975 39.2707 21.5246C39.6273 21.3581 39.97 21.4086 40.2778 21.6494C40.5075 21.8249 40.6397 22.0994 40.6338 22.3885C40.6379 23.9364 40.6402 25.4842 40.6338 27.0298C40.636 27.2851 40.5361 27.5306 40.3565 27.7119C40.1769 27.8932 39.9323 27.9952 39.6772 27.9952C39.1409 27.9952 38.7182 27.5676 38.7142 27.0014C38.7089 26.2384 38.713 25.4761 38.713 24.7138Z" fill="#132321"/>
<path id="Path_10" d="M51.1624 24.7241C51.1624 25.4858 51.1664 26.2482 51.1624 27.0099C51.1595 27.3981 50.9884 27.7026 50.6406 27.8836C50.334 28.0534 49.957 28.0308 49.6729 27.8256C49.3575 27.615 49.2439 27.3035 49.2445 26.931C49.2479 25.6268 49.2445 24.3203 49.2445 23.0178C49.2445 22.7985 49.2363 22.5787 49.2508 22.3599C49.2874 21.8082 49.7176 21.405 50.233 21.4282C50.7646 21.452 51.1577 21.8662 51.1606 22.4197C51.1658 23.189 51.1624 23.9565 51.1624 24.7241Z" fill="#132321"/>
<path id="Path_11" d="M22.9113 26.0334C22.9113 25.7102 22.9113 25.3871 22.9113 25.0639C22.9165 24.4988 23.3305 24.0707 23.8708 24.0684C24.4007 24.0684 24.8251 24.4861 24.8333 25.0419C24.8425 25.6994 24.8425 26.3569 24.8333 27.0144C24.8257 27.5731 24.4054 27.9955 23.8755 27.9955C23.3455 27.9955 22.9182 27.5667 22.9119 27.0034C22.9084 26.6797 22.9113 26.3565 22.9113 26.0334Z" fill="#132321"/>
<path id="Path_12" d="M45.8917 26.0353C45.8917 26.3642 45.8987 26.6938 45.8917 27.0216C45.8778 27.5437 45.5375 27.9197 45.029 27.9846C44.5919 28.0426 44.1559 27.7485 44.0208 27.3099C43.9895 27.2047 43.974 27.0954 43.975 26.9856C43.975 26.3387 43.9698 25.6918 43.975 25.045C43.9802 24.5739 44.284 24.191 44.7107 24.0935C45.1361 23.9921 45.5759 24.1926 45.7787 24.5802C45.857 24.7355 45.8959 24.9077 45.8917 25.0815C45.8929 25.4 45.8917 25.7179 45.8917 26.0353Z" fill="#132321"/>
<path id="Path_13" d="M66.964 26.0401C66.964 26.3749 66.9721 26.7102 66.964 27.045C66.9489 27.5572 66.5906 27.9332 66.0799 27.9889C65.6444 28.0365 65.2102 27.7342 65.0896 27.2927C65.0626 27.1865 65.0493 27.0773 65.0502 26.9678C65.0467 26.3441 65.045 25.7199 65.0502 25.0962C65.0542 24.552 65.3725 24.161 65.859 24.0867C66.4422 23.9922 66.9472 24.4244 66.96 25.0364C66.9669 25.37 66.964 25.7054 66.964 26.0401Z" fill="#132321"/>
</g>
</g>
</svg>
