<svg width="91" height="56" viewBox="0 0 91 56" fill="none" xmlns="http://www.w3.org/2000/svg">
<g id="Group 39">
<g id="Group 15">
<g id="Group">
<path id="Shape" fill-rule="evenodd" clip-rule="evenodd" d="M44.8833 40.4121C45.2867 40.4121 46.2244 40.4574 46.2244 41.0362C46.2244 42.2617 44.925 42.3536 43.9961 42.3538L43.734 43.4038H42.8164L43.6533 40.4121H44.8833ZM44.538 41.7987C44.7676 41.7987 45.0584 41.668 45.1633 41.4621L45.2037 41.2538C45.2037 40.979 44.8959 40.9074 44.6692 40.9074H44.4171L44.2155 41.7987H44.538Z" fill="#132321"/>
<path id="Path" d="M40.9688 42.5513H42.2191L42.3905 41.9272H41.1303L40.9688 42.5513Z" fill="#132321"/>
<path id="Path_2" d="M55.1822 42.304L55.0713 40.4121H53.7604L53.0547 43.4038H53.7906L54.3352 41.2641L54.4463 43.4038H55.3134L56.4828 41.2641L55.9988 43.4038H56.8156L57.5213 40.4121H56.1905L55.1822 42.304Z" fill="#132321"/>
<path id="Shape_2" fill-rule="evenodd" clip-rule="evenodd" d="M46.5139 41.98C46.8969 41.4515 47.2799 40.9231 47.6856 40.4111H48.8753C48.9036 40.6929 49.4171 43.338 49.4801 43.4028H48.4114L48.2802 42.5508H47.1208L46.5458 43.4028H45.457C45.8206 42.9366 46.1673 42.4582 46.5139 41.98ZM48.1037 41.0748L47.4987 41.9069H48.2248L48.1037 41.0748Z" fill="#132321"/>
<path id="Path_3" d="M51.6984 40.4116H50.6901L49.9844 43.4033H52.4346L52.5957 42.7591H51.1538L51.6984 40.4116Z" fill="#132321"/>
<path id="Path_4" d="M29.0504 41.6604L28.9094 42.3041H29.2924L29.1818 42.7594C29.1201 42.8185 28.8644 42.8389 28.7782 42.8389C28.3727 42.8389 28.0018 42.7094 28.0018 42.2445C28.0018 41.4779 28.687 41.0461 29.4033 41.0461C29.7578 41.0461 30.0441 41.1516 30.3814 41.2146L30.4923 40.4912C30.1085 40.4725 29.7382 40.353 29.3427 40.353C28.1823 40.353 27.0234 41.0872 27.0234 42.324C27.0234 43.0374 27.5894 43.4826 28.2939 43.4826H28.7981C29.2005 43.4826 29.6292 43.4063 30.0283 43.3541L30.4116 41.6601H29.0504V41.6604Z" fill="#132321"/>
<path id="Path_5" d="M19.3516 41.0456C19.6111 41.0456 19.8411 41.1342 20.0875 41.1547L20.1682 40.4615C19.9012 40.4289 19.6195 40.3525 19.3516 40.3525C18.1989 40.3525 17.0625 41.0698 17.0625 42.294C17.0625 43.0211 17.6926 43.4824 18.4036 43.4824H18.7567C18.9815 43.4824 19.2714 43.4431 19.4926 43.4034L19.7346 42.6802C19.4976 42.7319 19.2427 42.7893 18.9985 42.7893H18.6456C18.2956 42.7893 18.0507 42.487 18.0507 42.1655C18.0505 41.4739 18.6916 41.0456 19.3516 41.0456Z" fill="#132321"/>
<path id="Path_6" d="M37.5938 43.4038H40.1854L40.3164 42.7596H38.7433L38.8747 42.225H40.2156L40.3465 41.5811H39.0155L39.1467 41.0463H40.7298L40.8912 40.4121H38.3098L37.5938 43.4038Z" fill="#132321"/>
<path id="Path_7" d="M37.7744 40.4116H34.7796L34.6484 41.0458H35.6264L35.082 43.4033H36.0601L36.6246 41.0458H37.6026L37.7744 40.4116Z" fill="#132321"/>
<path id="Shape_3" fill-rule="evenodd" clip-rule="evenodd" d="M20.1211 42.3335C20.1211 41.1033 21.2805 40.3525 22.4401 40.3525C23.0474 40.3525 23.9729 40.6561 23.9727 41.3829V41.7195C23.9727 41.8303 23.9231 41.9591 23.8798 42.0713C23.8699 42.097 23.8604 42.1218 23.8518 42.1454C23.5619 42.9423 22.7676 43.4824 21.8957 43.4824H21.5024C20.8244 43.4824 20.1211 43.0524 20.1211 42.3335ZM22.9213 41.9542C22.9364 41.9046 22.9692 41.7968 22.9692 41.7788H22.969V41.5708C22.9508 41.5275 22.9383 41.4913 22.9278 41.4608C22.9114 41.4132 22.8997 41.3793 22.8785 41.3532C22.7085 41.1447 22.5531 41.0458 22.2733 41.0458C21.6463 41.0458 21.1237 41.5383 21.1237 42.1652C21.1237 42.486 21.3746 42.7891 21.7186 42.7891H22.0011C22.0906 42.7891 22.2046 42.7489 22.2867 42.7166C22.663 42.5686 22.8086 42.3405 22.9153 41.9737C22.9166 41.9694 22.9187 41.9626 22.9213 41.9542Z" fill="#132321"/>
<path id="Shape_4" fill-rule="evenodd" clip-rule="evenodd" d="M32.5402 40.4111H33.74C33.7603 40.8028 34.0027 41.8728 34.1595 42.5648C34.1975 42.7327 34.2305 42.8783 34.254 42.9865C34.2626 43.0256 34.2777 43.08 34.2938 43.1381C34.3201 43.2327 34.3492 43.3374 34.3572 43.4019L33.3065 43.4028L33.1653 42.5508H31.9958L31.4208 43.4028H30.332C31.0866 42.4355 31.8541 41.4242 32.5402 40.4111ZM32.953 41.0745L32.3782 41.9066H33.1144L32.953 41.0745Z" fill="#132321"/>
<path id="Path_8" d="M25.8225 40.4116H24.8544L24.1484 43.4033H26.5587L26.7198 42.7591H25.288L25.8225 40.4116Z" fill="#132321"/>
<path id="Path_9" d="M64.8047 43.4033H65.7826L66.4883 40.4116H65.5107L64.8047 43.4033Z" fill="#132321"/>
<path id="Path_10" d="M69.7573 40.4116L68.2855 42.6502L68.0131 40.4116H66.9844C67.0172 41.1813 67.3404 41.9464 67.4184 42.71L67.4986 43.4033H68.6685C69.402 42.4218 70.0522 41.3714 70.8159 40.4116H69.7573V40.4116Z" fill="#132321"/>
<path id="Path_11" d="M63.379 40.4121H62.4013L61.6953 43.4038H64.1458L64.2767 42.7596H62.8346L63.379 40.4121Z" fill="#132321"/>
<path id="Path_12" d="M70.625 43.4038H73.2066L73.368 42.7596H71.7648L71.8957 42.225H73.2366L73.368 41.5811H72.0369L72.1679 41.0463H73.751L73.9121 40.4121H71.331L70.625 43.4038Z" fill="#132321"/>
<path id="Shape_5" fill-rule="evenodd" clip-rule="evenodd" d="M57.707 42.2641C57.707 41.0805 58.9112 40.3525 60.0059 40.3525C60.6226 40.3525 61.5385 40.6422 61.5385 41.3827V41.7192C61.5385 42.6907 60.3801 43.4821 59.4716 43.4821H59.0783C58.3263 43.4821 57.707 43.0244 57.707 42.2641ZM59.2945 42.7891H59.5667C60.1137 42.7891 60.5449 42.2057 60.5446 41.7094C60.5446 41.6807 60.5391 41.6492 60.5337 41.6177C60.5266 41.5767 60.5195 41.5358 60.5245 41.5014C60.3442 41.1468 60.0972 41.0458 59.8389 41.0458C59.6864 41.0458 59.4953 41.0722 59.3551 41.1351C59.0695 41.2627 58.7097 41.7405 58.7097 42.0561V42.2739C58.7097 42.5344 59.0446 42.7891 59.2945 42.7891Z" fill="#132321"/>
</g>
<path id="Shape_6" fill-rule="evenodd" clip-rule="evenodd" d="M51.6483 12.7275C61.6986 12.8491 62.1444 21.6432 62.1444 21.6432C62.1444 21.6432 62.266 31.2877 51.8503 31.5002L51.283 31.4989L50.1084 36.5226L43.0163 36.5158L45.918 23.9162L52.6209 23.9137C54.6065 23.7099 54.4855 21.9171 54.4855 21.9171C54.4855 21.9171 54.0901 20.2145 52.0186 20.1991L46.7727 20.177L48.447 12.7275H51.6483ZM39.0869 12.7276C29.0366 12.8492 28.7941 21.6433 28.7941 21.6433C28.7941 21.6433 28.4699 31.2878 38.8843 31.5008L42.3699 31.4904L44.0872 23.9163L38.1138 23.9138C36.1288 23.71 36.2497 21.9171 36.2497 21.9171C36.2497 21.9171 36.6451 20.2145 38.7173 20.1992L44.9352 20.1771L46.6242 12.7276H39.0869Z" fill="#132321"/>
</g>
</g>
</svg>
