<svg width="91" height="56" viewBox="0 0 91 56" fill="none" xmlns="http://www.w3.org/2000/svg">
<g id="Group 37">
<g id="Group 2">
<g id="Esgian_Logo_h">
<g id="Logo_Color">
<g id="Sign_Color">
<path id="Combined Shape" fill-rule="evenodd" clip-rule="evenodd" d="M31.1455 27.1277C31.1455 25.7668 30.7884 24.4893 30.1629 23.3838L23.9854 29.5611L22.5998 28.1755L20.3083 30.467L20.3094 30.4631L17.5257 33.2468L16.4609 34.4693L18.9161 33.183C20.1966 34.1606 21.7964 34.7413 23.5319 34.7413C27.7368 34.7413 31.1455 31.3326 31.1455 27.1277Z" fill="#132321"/>
<path id="Combined Shape_2" fill-rule="evenodd" clip-rule="evenodd" d="M28.0826 21.023C26.8131 20.075 25.2379 19.5137 23.5316 19.5137C19.3267 19.5137 15.918 22.9224 15.918 27.1273C15.918 28.4226 16.2414 29.6423 16.812 30.7101L22.5087 25.0133L23.8943 26.3989L27.3883 22.9048L27.3893 22.9069L30.3384 19.9578L28.0826 21.023Z" fill="#132321"/>
</g>
</g>
</g>
<g id="Group 17">
<g id="Group 3">
<mask id="mask0_2022_68266" style="mask-type:luminance" maskUnits="userSpaceOnUse" x="51" y="24" width="8" height="13">
<path id="Clip 2" fill-rule="evenodd" clip-rule="evenodd" d="M51.8164 24.2544H58.762V36.085H51.8164V24.2544Z" fill="white"/>
</mask>
<g mask="url(#mask0_2022_68266)">
<path id="Fill 1" fill-rule="evenodd" clip-rule="evenodd" d="M53.8129 29.729C53.483 30.0055 53.292 30.0571 53.1704 30.0571C53.101 30.0571 53.0836 30.04 53.0662 30.0226C53.0489 29.9881 52.9968 29.8844 52.9968 29.6254C52.9968 29.2109 53.153 28.6584 53.4482 28.0019C53.7608 27.3285 54.1428 26.724 54.6116 26.223C55.0457 25.7566 55.4451 25.5321 55.8445 25.515C55.8792 25.5496 55.9139 25.6014 55.9487 25.653C55.9834 25.7223 56.1049 25.9293 56.348 25.8775C56.2265 26.2059 56.0702 26.5513 55.9139 26.8793C55.6014 27.5183 55.2541 28.071 54.8721 28.5375C54.4901 29.0901 54.1254 29.4874 53.8129 29.729ZM58.2238 27.6912C57.998 26.6894 57.8418 25.9295 57.7723 25.4288C57.7723 25.4114 57.7723 25.4114 57.7897 25.3941C57.807 25.325 57.8244 25.2561 57.8244 25.1869C57.8244 25.0834 57.7723 24.9278 57.5639 24.7896C57.3208 24.6516 57.0256 24.6342 56.8346 24.8069C56.7825 24.8414 56.7478 24.8933 56.7131 24.9452C56.6784 24.8069 56.6263 24.6862 56.5394 24.5653C56.3832 24.3578 56.1574 24.2544 55.8622 24.2544C55.2198 24.2544 54.5773 24.5824 53.9348 25.2561C53.3271 25.8777 52.8235 26.6549 52.4241 27.5185C52.0248 28.3995 51.8164 29.1767 51.8164 29.8501C51.8164 30.2818 51.9032 30.6273 52.0595 30.8863C52.2505 31.1799 52.5457 31.3355 52.9103 31.3355C53.2924 31.3355 53.6917 31.1799 54.0911 30.8863C54.4558 30.6102 54.8725 30.1955 55.3066 29.6603C55.7754 29.0903 56.1748 28.5029 56.5047 27.8813C56.6436 27.6223 56.7652 27.3803 56.8867 27.1559C56.9388 27.4495 57.0083 27.7604 57.0951 28.0884C57.234 28.762 57.3556 29.3148 57.425 29.7811C57.4945 30.23 57.5292 30.7311 57.5292 31.2663C57.5292 31.7153 57.4424 32.1646 57.2514 32.6134C57.0777 33.0452 56.7825 33.4424 56.4005 33.7706C55.897 34.2196 55.3413 34.5478 54.7336 34.7378C54.2474 34.9105 53.9175 35.0832 53.9175 35.3768C53.9175 35.567 53.9696 35.7222 54.0911 35.8604C54.2127 36.0158 54.421 36.0851 54.6815 36.0851C55.0461 36.0851 55.4629 35.9642 55.9317 35.7051C56.3832 35.4632 56.8173 35.1352 57.234 34.7378C57.6507 34.3405 58.0154 33.8399 58.3106 33.2179C58.6231 32.5963 58.762 31.8881 58.762 31.1283C58.762 30.6273 58.71 30.1091 58.6231 29.5739C58.5363 29.0903 58.3974 28.4513 58.2238 27.6912Z" fill="#132321"/>
</g>
</g>
<path id="Fill 4" fill-rule="evenodd" clip-rule="evenodd" d="M50.6086 28.1501C50.2203 27.9221 49.6631 27.7291 48.954 27.5537C48.8865 27.5362 48.802 27.5186 48.7007 27.5011C48.6332 27.4836 48.5657 27.466 48.4981 27.4485H48.4644C47.8059 27.2906 47.35 27.1678 47.1137 27.0626C46.9111 26.9749 46.9111 26.8697 46.9111 26.817C46.9111 26.5539 47.0293 26.3434 47.2825 26.1505C47.5695 25.9225 47.9072 25.7646 48.2618 25.6418C48.7176 25.5015 48.9371 25.4664 49.0384 25.4664C49.0553 25.4664 49.0722 25.4664 49.0891 25.484C49.1904 25.5541 49.3085 25.5892 49.4099 25.5892C49.6462 25.5892 49.8488 25.4664 49.967 25.2384C50.0683 25.063 50.1021 24.8876 50.1021 24.7297C50.1021 24.5543 50.0345 24.1685 49.3761 24.1685C49.0384 24.1685 48.5994 24.2737 48.0085 24.5017C47.4345 24.7297 46.9111 25.0455 46.4721 25.4314C45.9825 25.8523 45.7461 26.3434 45.7461 26.8872C45.7461 27.2205 45.8812 27.5186 46.1513 27.7291C46.3708 27.9221 46.6747 28.0624 47.0293 28.1852C47.3669 28.2904 47.8397 28.4307 48.4306 28.5711C48.9709 28.6938 49.3423 28.7991 49.5787 28.8692C49.7644 28.9219 49.9332 29.0096 50.0514 29.1324C50.1527 29.2376 50.2034 29.3604 50.2034 29.5358C50.2034 29.7287 50.119 29.9041 49.9164 30.0795C49.6969 30.29 49.4099 30.4654 49.0553 30.5882C48.7007 30.7285 48.3462 30.7811 48.0085 30.7811C47.941 30.7811 47.8734 30.7811 47.8228 30.7636C47.8397 30.7285 47.8397 30.6934 47.8397 30.6759C47.8397 30.6233 47.8228 30.3251 47.4176 30.3251C47.2656 30.3251 47.0968 30.4303 46.8098 30.7285C46.5227 31.0092 46.4214 31.2021 46.4214 31.36C46.4214 31.588 46.5396 31.7809 46.7591 31.9213C46.9448 32.0265 47.2319 32.0616 47.6708 32.0616C48.2786 32.0616 48.8527 31.9388 49.4099 31.6932C49.967 31.4477 50.4229 31.1144 50.7774 30.711C51.132 30.2725 51.3177 29.8164 51.3177 29.3428C51.3008 28.8342 51.0645 28.4307 50.6086 28.1501Z" fill="#132321"/>
<path id="Fill 6" fill-rule="evenodd" clip-rule="evenodd" d="M42.4474 23.6456C42.7988 23.5757 43.2557 23.4709 43.8004 23.2963C44.3627 23.1216 44.7669 22.9819 45.048 22.8247C45.3643 22.6501 45.4346 22.4405 45.4346 22.2833C45.4346 21.9864 45.2237 21.8467 45.0129 21.8467L44.433 21.9688C43.2733 22.2484 42.3947 22.423 41.85 22.4927C41.0944 22.5977 40.4442 22.6501 39.8643 22.685C39.7589 22.4927 39.6008 22.4754 39.5305 22.4754C39.2669 22.4754 39.0209 22.58 38.81 22.7723C38.7573 22.7723 38.6695 22.7898 38.5465 22.8073C38.3707 22.8247 38.2302 22.8597 38.1072 22.8771H38.0896C37.5097 23.0167 37.4219 23.3836 37.4219 23.5932C37.4219 23.7153 37.4746 23.8377 37.58 23.9425C37.6503 24.0123 37.7733 24.0997 37.9842 24.0997L38.6343 24.0822H38.6519H38.7046C38.7397 24.7459 38.7573 25.5491 38.7925 26.5097L38.4586 26.5448C38.318 26.5622 38.0896 26.5797 37.7733 26.6146H37.7557C37.6327 26.6321 37.5273 26.7194 37.457 26.8417C37.4219 26.929 37.3867 27.0163 37.3867 27.1386C37.3867 27.3132 37.457 27.4702 37.58 27.5927C37.703 27.7149 37.8612 27.7848 38.0544 27.7848C38.1774 27.7848 38.3532 27.7673 38.5992 27.7322C38.7046 27.7149 38.81 27.6975 38.8979 27.68C38.9682 28.5882 39.0385 29.3217 39.1088 29.8981C39.2142 30.5792 39.3899 31.0682 39.6535 31.3651L39.6711 31.3826C39.8995 31.5922 40.2334 31.7492 40.6551 31.8192C41.0417 31.8891 41.5161 31.9065 42.1135 31.9065C42.711 31.9065 43.2557 31.8017 43.7653 31.6096C44.2749 31.4175 44.679 31.1555 44.9602 30.8237C45.2765 30.4919 45.4346 30.1251 45.4346 29.7583C45.4346 29.5488 45.3643 29.3392 45.2062 29.1645C45.048 28.9724 44.8372 28.8851 44.6087 28.8851C44.0816 28.8851 44.0289 29.182 44.0289 29.3041C44.0289 29.409 44.064 29.4964 44.1343 29.6012C44.1694 29.6534 44.2046 29.7059 44.2221 29.7234C44.2573 29.7758 44.2924 29.8457 44.31 29.8981C44.3276 29.933 44.3276 29.9679 44.3276 30.0203C44.3276 30.0203 44.31 30.1076 44.0991 30.2474C43.8883 30.3871 43.6071 30.5093 43.2733 30.6139C42.9218 30.7189 42.5528 30.7713 42.1662 30.7713C41.7621 30.7713 41.4458 30.7538 41.1998 30.7189C40.9889 30.684 40.7781 30.6316 40.5672 30.5617C40.3388 29.8631 40.1982 28.8152 40.1455 27.453C40.3212 27.4355 40.5496 27.4006 40.8484 27.3482C41.3228 27.2783 41.7797 27.191 42.1662 27.1037C42.6583 26.9989 43.0976 26.8417 43.5017 26.6321C43.818 26.4749 44.2221 26.2129 44.2221 25.8287C44.2221 25.7065 44.187 25.5842 44.1167 25.4618C43.9937 25.2524 43.818 25.2174 43.7126 25.2174C43.572 25.2174 43.4138 25.2871 43.1678 25.4794C42.8867 25.7237 42.465 25.8811 41.9378 25.9857L41.3931 26.073C40.8484 26.178 40.3915 26.2477 40.0576 26.3003C40.0576 26.073 40.0401 25.7938 40.0225 25.427C40.0049 24.9555 39.9873 24.4664 39.9873 24.0123C40.1806 23.9949 40.4442 23.9599 40.7956 23.925C41.3404 23.8377 41.9027 23.7504 42.4474 23.6456Z" fill="#132321"/>
<path id="Fill 8" fill-rule="evenodd" clip-rule="evenodd" d="M61.1561 29.6658V29.6308C61.1044 29.0707 61.0702 28.3177 61.0702 27.3898L61.0874 25.7265C61.0874 25.1837 61.0528 24.8336 60.9842 24.6235C60.8982 24.3259 60.6575 24.1685 60.3306 24.1685C60.09 24.1685 59.9696 24.2908 59.918 24.3784C59.8491 24.4834 59.832 24.6062 59.832 24.7636C59.8491 25.1662 59.8664 25.7265 59.8836 26.4445C59.918 27.1621 59.935 27.915 59.9866 28.6853C60.0556 29.8586 60.107 30.6287 60.176 31.0489C60.2104 31.294 60.2963 31.8893 60.7089 31.9068H60.7778C60.9154 31.9068 61.0358 31.872 61.1388 31.8018C61.2937 31.6969 61.3797 31.5391 61.3797 31.3467C61.3797 31.189 61.3453 30.9264 61.2764 30.5237C61.1733 29.8234 61.1561 29.6835 61.1561 29.6658Z" fill="#132321"/>
<path id="Fill 10" fill-rule="evenodd" clip-rule="evenodd" d="M75.1186 30.9684C75.1186 29.5229 75.1016 28.3946 75.0846 27.6191C75.0507 26.8259 74.9824 26.1737 74.8804 25.6623C74.7101 24.869 74.3353 24.7106 74.0458 24.7106C73.5349 24.7106 73.0411 25.1863 72.5642 26.1911C72.2066 26.914 71.832 27.7954 71.4403 28.8C71.4233 28.6237 71.4062 28.43 71.3894 28.2008L71.3381 27.4605C71.287 26.4555 71.253 25.7152 71.2019 25.257C71.1678 24.8868 71.1167 24.3228 70.7421 24.3228C70.5379 24.3228 70.3334 24.3931 70.1801 24.5165C69.9928 24.6575 69.8906 24.8516 69.8906 25.0807C69.8906 25.1689 69.9077 25.2923 69.9419 25.4507C70.027 26.0503 70.1122 26.7554 70.1801 27.5661L70.3845 29.5932L70.4867 30.7568C70.5037 30.9506 70.5718 31.0741 70.7082 31.1446C70.7934 31.1797 70.8954 31.1975 71.0488 31.1975C71.1849 31.1975 71.3211 31.1623 71.4573 31.0741C71.5936 30.986 71.6957 30.8624 71.7468 30.704L71.9512 30.1399C72.428 28.8531 72.8369 27.7954 73.2114 27.0198C73.5519 26.2792 73.7904 26.0677 73.9096 25.9974C73.9266 26.0503 73.9438 26.1208 73.9438 26.244C73.9777 26.5791 73.9947 27.0372 73.9947 27.5839C73.9947 28.1479 73.9606 28.8707 73.9096 29.7344C73.8586 30.5453 73.8244 31.1623 73.8244 31.5501C73.8244 31.7264 73.9096 31.8674 74.0458 31.9555C74.148 32.026 74.2844 32.0611 74.4204 32.0611C74.6078 32.0611 74.7781 31.9908 74.9143 31.8674C75.0676 31.7264 75.1527 31.5675 75.1527 31.3738L75.1186 30.9684Z" fill="#132321"/>
<path id="Fill 12" fill-rule="evenodd" clip-rule="evenodd" d="M64.9612 29.938C64.5442 30.2694 64.1273 30.4438 63.6756 30.4438C63.5888 30.4438 63.554 30.4438 63.554 30.3044C63.554 30.0078 63.693 29.5892 63.9883 29.0661C64.2837 28.5082 64.6658 27.9325 65.1175 27.3571C65.5692 26.7816 66.0035 26.3107 66.403 25.9796C66.8026 25.6308 67.0284 25.5783 67.1153 25.5783C67.2195 25.5783 67.3064 25.6132 67.3758 25.7004C67.4453 25.7876 67.4974 25.9096 67.4974 26.0319C67.4974 26.3107 67.4453 26.5723 67.3585 26.8166C66.9242 27.5491 66.5246 28.1767 66.1598 28.6826C65.8124 29.1533 65.4128 29.5718 64.9612 29.938ZM68.8847 30.4088C68.8673 30.252 68.8673 30.0251 68.85 29.7461C68.8326 29.4496 68.8326 29.1532 68.8152 28.8569L68.7805 27.7233C68.7631 27.2525 68.7631 26.9559 68.7457 26.7989C68.7284 26.4501 68.6067 26.2934 68.4851 26.2234C68.5373 26.049 68.572 25.8746 68.572 25.7003C68.572 25.4387 68.5025 25.1947 68.3635 24.9678C68.2246 24.7587 68.0682 24.6016 67.8771 24.4971C67.686 24.3751 67.4776 24.3228 67.2865 24.3228C67.078 24.3228 66.8696 24.3751 66.6264 24.4971C66.4005 24.6016 66.1052 24.7934 65.7404 25.1075C65.2019 25.5435 64.6633 26.119 64.1422 26.7989C63.621 27.479 63.1694 28.1593 62.8393 28.822C62.4745 29.5196 62.3008 30.06 62.3008 30.4787C62.3008 30.8447 62.405 31.1412 62.6135 31.3855C62.8219 31.6295 63.1346 31.7516 63.5168 31.7516C64.1943 31.7516 64.8371 31.49 65.4451 31.0019C66.0183 30.5308 66.5048 30.0077 66.8696 29.4672C67.1301 29.0836 67.4081 28.6649 67.7034 28.1766V28.4556C67.686 29.4845 67.6687 30.1299 67.6687 30.4088V30.4787C67.6687 30.7752 67.7208 31.0367 67.8076 31.2807C67.9814 31.6818 68.2593 31.7343 68.4157 31.7343C68.6067 31.7343 68.7805 31.6122 68.9194 31.3855C69.041 31.1935 69.1105 31.0191 69.1105 30.8447C69.1105 30.7227 69.0584 30.6008 68.9368 30.4787C68.8847 30.4437 68.8847 30.4264 68.8847 30.4088Z" fill="#132321"/>
<g id="Group 16">
<mask id="mask1_2022_68266" style="mask-type:luminance" maskUnits="userSpaceOnUse" x="59" y="21" width="2" height="3">
<path id="Clip 15" fill-rule="evenodd" clip-rule="evenodd" d="M59.2617 21.5713H60.933V23.0502H59.2617V21.5713Z" fill="white"/>
</mask>
<g mask="url(#mask1_2022_68266)">
<path id="Fill 14" fill-rule="evenodd" clip-rule="evenodd" d="M60.933 22.5688C60.933 22.4655 60.8824 22.3795 60.7473 22.1905C60.6462 22.0702 60.5618 21.9496 60.4941 21.881C60.3759 21.7433 60.2577 21.6573 60.1397 21.6231L60.0044 21.5713H59.9538C59.7849 21.5713 59.6332 21.6402 59.481 21.7776C59.2955 21.9496 59.2617 22.1389 59.2617 22.2591C59.2617 22.4829 59.4473 22.672 59.5994 22.7924C59.802 22.9644 60.0215 23.0503 60.2241 23.0503C60.8486 23.0503 60.933 22.758 60.933 22.5688Z" fill="#132321"/>
</g>
</g>
</g>
</g>
</g>
</svg>
