<svg width="91" height="56" viewBox="0 0 91 56" fill="none" xmlns="http://www.w3.org/2000/svg">
<g id="Group 34">
<g id="fcvp-outlines">
<g id="Group 6">
<g id="Group 3">
<mask id="mask0_2022_68178" style="mask-type:luminance" maskUnits="userSpaceOnUse" x="30" y="6" width="32" height="44">
<path id="Clip 2" fill-rule="evenodd" clip-rule="evenodd" d="M30.5039 6.78809H61.0494V49.2804H30.5039V6.78809Z" fill="white"/>
</mask>
<g mask="url(#mask0_2022_68178)">
<path id="Fill 1" fill-rule="evenodd" clip-rule="evenodd" d="M45.7202 49.2799L45.4493 49.202C44.7918 49.0111 44.0442 48.7253 43.0948 48.3015C41.247 47.4761 39.5361 46.4657 38.0071 45.2965C35.5966 43.4566 33.7348 41.298 32.4716 38.8806C31.1665 36.3822 30.5039 33.6079 30.5039 30.6388V15.2767L31.1035 15.0188C33.0673 14.1794 34.3205 12.2826 34.2945 10.1869L34.2925 8.61494L34.972 8.39208C38.137 7.34175 41.8706 6.78711 45.7701 6.78711C49.6347 6.78711 53.3413 7.33276 56.4883 8.3661L57.1678 8.58796V10.16C57.1439 12.2546 58.458 14.2054 60.4388 15.0138L61.0504 15.2637V30.6388C61.0504 33.6119 60.3818 36.3902 59.0636 38.8906C57.7914 41.306 55.9156 43.4616 53.4882 45.2995C51.9492 46.4677 50.2253 47.4771 48.3645 48.3025C47.4061 48.7273 46.6546 49.0131 45.993 49.204L45.7202 49.2799ZM30.5768 15.3228V30.639C30.5768 36.4603 33.1622 41.509 38.0521 45.2406C39.5771 46.4069 41.284 47.4162 43.1258 48.2387C44.0732 48.6624 44.8177 48.9463 45.4713 49.1351L45.7232 49.2091L45.978 49.1361C46.6346 48.9473 47.3851 48.6634 48.3395 48.2407C50.1953 47.4172 51.9152 46.4089 53.4502 45.2436C58.3791 41.512 60.9844 36.4613 60.9844 30.639V15.3108L60.4158 15.0769C58.409 14.2585 57.0759 12.2827 57.1019 10.1601V8.63905L56.4713 8.43119C53.3283 7.40285 49.6307 6.85819 45.7731 6.85819C41.8806 6.85819 38.155 7.41084 34.997 8.45717L34.3664 8.66404L34.3684 10.1871C34.3934 12.3107 33.1242 14.2335 31.1325 15.0819L30.5768 15.3228Z" fill="#132321"/>
</g>
</g>
<path id="Fill 4" fill-rule="evenodd" clip-rule="evenodd" d="M56.1795 10.1489V9.30241C53.2434 8.34203 49.6477 7.77539 45.7671 7.77539C41.8497 7.77539 38.229 8.35202 35.2799 9.3284V10.1719C35.3118 12.7482 33.7159 14.9748 31.4883 15.9262V30.6388C31.4883 44.1481 45.7202 48.2545 45.7202 48.2545C45.7202 48.2545 60.061 44.1481 60.061 30.6388V15.9262C57.7825 14.9978 56.1455 12.7572 56.1795 10.1489ZM35.7561 10.1672V9.67354C38.943 8.66919 42.4428 8.25345 45.7687 8.25345C49.0686 8.25345 52.5363 8.66219 55.7053 9.65056V10.1442C55.6823 12.009 56.4588 13.7459 57.753 14.9861C54.2422 13.675 50.1449 12.9195 45.7687 12.9195C41.3655 12.9195 37.2441 13.682 33.7214 15.0081C35.0066 13.7629 35.7791 12.026 35.7561 10.1672ZM54.9135 14.554V16.117C53.7562 16.2959 52.6119 16.5407 51.4857 16.8525V13.8324C52.6389 14.0133 53.7852 14.2522 54.9135 14.554ZM47.1088 13.4189V18.4387C46.2664 18.8215 45.4409 19.2462 44.6374 19.7089C44.3146 19.8958 43.9948 20.0876 43.679 20.2865V13.4529C44.3796 13.4129 45.0781 13.3969 45.7667 13.3969C46.2114 13.3969 46.6601 13.4029 47.1088 13.4189ZM39.2977 13.9435V23.6843C38.0325 24.8835 36.8832 26.2007 35.8679 27.6238V14.741C36.9921 14.4102 38.1394 14.1464 39.2977 13.9435ZM37.8078 43.2457L37.8058 42.816V42.741C37.8058 42.6261 37.8078 42.5082 37.8098 42.3922C37.9397 42.8599 38.1266 43.3057 38.3654 43.7164C38.1756 43.5615 37.9897 43.4046 37.8078 43.2457ZM41.3828 40.7593L42.9688 40.2796L44.0711 41.4029L43.3245 43.0039L41.6716 43.4006L40.7852 42.1704L41.3828 40.7593ZM40.4297 39.1853L41.2072 37.4314L42.9151 36.8558L43.7895 38.138L42.8182 39.8579L41.3011 40.3086L40.4297 39.1853ZM46.4979 43.6234L44.687 44.256L43.7656 43.2126L44.5581 41.5027L46.277 40.9061L47.2474 41.8625L46.4979 43.6234ZM46.938 44.6178C46.2424 45.3923 45.0602 45.944 43.9319 46.0619L43.72 45.6982L44.7853 44.7518L46.5013 44.1322L46.938 44.6178ZM46.5652 40.5156L46.4772 38.4919L47.4366 37.6335C48.338 38.7138 48.6768 40.1578 48.5179 41.45L47.6865 41.6019L46.5652 40.5156ZM46.105 38.1841L44.2122 37.9183L43.3008 36.5811L44.1762 35.6937C45.3125 35.8826 46.3608 36.4752 47.1223 37.2717L46.105 38.1841ZM44.0801 35.1969C43.8862 35.1699 43.6873 35.1539 43.4885 35.1479H43.4795C43.4255 35.1469 43.3695 35.1469 43.3146 35.1469C41.2529 35.1469 39.448 36.2372 38.4427 37.8702C38.8514 36.3441 39.451 34.8671 40.2325 33.467C41.9734 30.358 44.5288 27.7746 47.5539 25.9098C49.6055 28.3053 50.9477 31.1575 51.3904 34.1016C49.1748 34.978 46.6694 35.3668 44.0801 35.1969ZM39.917 36.8715L40.7615 37.4432L39.923 39.0901L38.6668 39.7697L38.2331 39.5858V39.5838C38.5009 38.5095 39.1015 37.5681 39.917 36.8715ZM38.4164 40.1797L38.5463 41.9236L38.2965 42.3773C38.1505 41.8966 38.0716 41.246 38.0716 40.8593C38.0716 40.5205 38.1056 40.2707 38.1356 40.0528L38.4164 40.1797ZM39.9826 44.9008C39.4269 44.4451 38.9303 43.8924 38.5065 42.946L38.8703 42.2275L40.4573 42.4963L41.3017 43.7265L40.939 44.7669L39.9936 44.9028L39.9826 44.9008ZM41.1516 45.2127L43.2502 45.8853L43.3722 46.0981C42.4278 46.1231 41.2865 45.7963 40.53 45.3086L41.1516 45.2127ZM45.1631 47.564C44.6654 47.3831 44.1717 47.1842 43.689 46.9664C43.3942 46.8335 43.0994 46.6966 42.8086 46.5527C42.9745 46.5666 43.1434 46.5746 43.3133 46.5746C46.4683 46.5746 49.0256 44.0153 49.0256 40.8593C49.0256 38.5877 47.7015 36.626 45.7807 35.7046C46.837 35.6746 47.8883 35.5547 48.9267 35.3368C49.7871 35.1539 50.6326 34.9041 51.4531 34.5873C51.6859 36.616 51.492 38.6777 50.8045 40.6544C49.7611 43.6515 47.7414 46.008 45.1631 47.564ZM59.5822 30.6389C59.5822 36.2483 57.0309 40.7694 52.6257 44.1142C51.1406 45.2415 49.4977 46.1969 47.7958 46.9534C47.2681 47.1883 46.7355 47.4051 46.1948 47.595C46.0609 47.642 45.926 47.6909 45.7891 47.7359C46.4077 47.3352 46.9973 46.8855 47.5479 46.3898C49.2439 44.8648 50.505 42.965 51.2546 40.8113C51.7832 39.2863 52.0411 37.6734 52.0221 36.0594C52.0171 35.5047 51.9761 34.9491 51.9081 34.4044C53.8719 33.573 55.6538 32.3428 57.0589 30.7148C58.0202 29.5995 58.7748 28.3343 59.2874 26.9552C59.3974 26.6594 59.4953 26.3606 59.5822 26.0588V30.6389ZM59.584 22.5931V22.759C59.575 24.1161 59.3352 25.4732 58.8435 26.7894C57.6243 30.0633 55.0679 32.5167 51.843 33.9158C51.4372 31.3415 50.3719 28.895 48.8429 26.7774C48.5661 26.3946 48.2753 26.0209 47.9675 25.6611C48.0134 25.6341 48.0584 25.6081 48.1044 25.5822C51.5961 23.5704 55.5596 22.5511 59.584 22.5511V22.5931ZM59.5832 22.0754C47.2931 22.0754 37.3285 31.3295 37.3285 42.7412V42.8171C35.0669 40.7125 33.4559 38.219 32.6185 35.3579C35.8504 24.3419 46.6985 16.2381 59.5832 16.2381V22.0754Z" fill="#132321"/>
</g>
<path id="Fill 7" fill-rule="evenodd" clip-rule="evenodd" d="M50.2926 10.072L51.6297 12.9162L52.2513 13.0121L52.8 9.37747L52.1814 9.28353L51.7846 11.8899L50.4625 9.0197L49.8319 8.92676L49.2812 12.5614L49.9009 12.6564L50.2926 10.072Z" fill="#132321"/>
<path id="Fill 8" fill-rule="evenodd" clip-rule="evenodd" d="M50.8955 9.35038L51.648 9.4653L52.0567 9.01359L51.622 8.94264L51.2832 9.32539L51.0704 8.86069L50.6406 8.79773L50.8955 9.35038Z" fill="#132321"/>
<path id="Fill 9" fill-rule="evenodd" clip-rule="evenodd" d="M39.2923 9.28417L38.6797 9.4051L39.3862 13.0118C39.5841 12.9738 39.809 12.9318 40.0038 12.8919C39.9099 12.4142 39.781 11.7626 39.689 11.2829C40.4286 11.139 41.292 11.057 41.0772 9.97173C40.8823 8.97237 39.8649 9.17324 39.2923 9.28417ZM40.0676 10.5814L39.5689 10.6794L39.418 9.89087L39.9127 9.79393C40.0486 9.76695 40.3953 9.72798 40.4673 10.0947C40.5393 10.4575 40.2294 10.5485 40.0676 10.5814Z" fill="#132321"/>
<path id="Fill 11" fill-rule="evenodd" clip-rule="evenodd" d="M46.4268 11.7985H44.8268L46.4268 9.37809V8.75049H44.1133V9.37809H45.7113L44.1133 11.7985V12.4271H46.4268V11.7985Z" fill="#132321"/>
<path id="Fill 12" fill-rule="evenodd" clip-rule="evenodd" d="M48.801 11.9225L47.5369 11.8355L47.6078 10.8262L48.6981 10.9051L48.7391 10.2875L47.6528 10.2106L47.7067 9.42106L48.9729 9.509L49.0169 8.8844L47.1241 8.75049L46.8633 12.4161L48.7571 12.5481L48.801 11.9225Z" fill="#132321"/>
<path id="Fill 13" fill-rule="evenodd" clip-rule="evenodd" d="M42.4736 11.9223L42.2047 8.88525L41.5781 8.94122L41.9039 12.6029L43.6338 12.452L43.5768 11.8274L42.4736 11.9223Z" fill="#132321"/>
<path id="Fill 14" fill-rule="evenodd" clip-rule="evenodd" d="M43.1375 27.485L40.3862 24.6089L39.8945 25.0796L42.6458 27.9537L43.1375 27.485Z" fill="#132321"/>
<path id="Fill 15" fill-rule="evenodd" clip-rule="evenodd" d="M40.6078 28.8238L37.4758 27.8044L37.0391 28.3241L41.0955 29.6822L41.5332 29.1616L39.4985 25.397L39.0608 25.9186L40.6078 28.8238Z" fill="#132321"/>
<path id="Fill 16" fill-rule="evenodd" clip-rule="evenodd" d="M44.6902 22.1256L46.4451 24.9278L47.0207 24.569L45.2648 21.7658L45.8535 21.3971L45.4867 20.8364L43.7578 21.9177L44.1146 22.4854L44.6902 22.1256Z" fill="#132321"/>
<path id="Fill 17" fill-rule="evenodd" clip-rule="evenodd" d="M38.0282 32.2904C38.1361 32.6082 38.1241 32.9699 37.9652 33.2987C37.6454 33.9523 36.8559 34.2251 36.2003 33.9053C35.5477 33.5876 35.2749 32.7961 35.5927 32.1435C35.7536 31.8147 36.0314 31.5828 36.3502 31.4739L36.1324 30.8413C35.6487 31.0052 35.2339 31.355 34.9901 31.8487C34.5094 32.836 34.9201 34.0253 35.9085 34.508C36.8959 34.9877 38.0861 34.5799 38.5668 33.5925C38.8067 33.0979 38.8266 32.5542 38.6608 32.0705L38.0282 32.2904Z" fill="#132321"/>
<path id="Fill 19" fill-rule="evenodd" clip-rule="evenodd" d="M44.1234 26.6519L43.0211 25.2648L45.2057 25.7954L45.8652 25.2728L43.2499 24.6582L43.3928 22.1558L42.7352 22.6774L42.6063 24.7411L41.6519 23.5369L41.1133 23.9616L43.5927 27.0766L44.1234 26.6519Z" fill="#132321"/>
<path id="Fill 20" fill-rule="evenodd" clip-rule="evenodd" d="M36.0422 35.0686L35.4096 34.8498L34.9659 36.137L34.1474 35.8531L34.5891 34.567L33.9575 34.3501L33.293 36.2809L37.0546 37.575L37.2734 36.9314L35.5985 36.3548L36.0422 35.0686Z" fill="#132321"/>
<path id="Fill 21" fill-rule="evenodd" clip-rule="evenodd" d="M56.1222 20.2979L57.6962 20.134L58.2608 21.1853L58.9934 21.1094L56.9517 17.3218L56.2801 17.3897L55.0469 21.5181L55.7804 21.4431L56.1222 20.2979ZM56.7151 18.312L57.3527 19.4962L56.3274 19.6031L56.7151 18.312Z" fill="#132321"/>
<path id="Fill 22" fill-rule="evenodd" clip-rule="evenodd" d="M49.1456 23.4364C50.1419 22.9837 50.5876 21.8035 50.1349 20.8041C49.6802 19.8048 48.502 19.36 47.5006 19.8158C46.5013 20.2685 46.0565 21.4467 46.5093 22.4491C46.964 23.4494 48.1442 23.8931 49.1456 23.4364ZM47.7793 20.4241C48.4408 20.1243 49.2263 20.4181 49.5261 21.0817C49.828 21.7442 49.5341 22.5267 48.8716 22.8276C48.207 23.1274 47.4235 22.8336 47.1247 22.171C46.8229 21.5064 47.1197 20.7269 47.7793 20.4241Z" fill="#132321"/>
<path id="Fill 24" fill-rule="evenodd" clip-rule="evenodd" d="M54.729 21.6144L53.9595 17.7119L53.293 17.8438L54.0655 21.7483L54.729 21.6144Z" fill="#132321"/>
<path id="Fill 25" fill-rule="evenodd" clip-rule="evenodd" d="M51.8656 22.3818C51.7127 21.8782 51.5009 21.1926 51.347 20.6869L52.9979 22.0241L53.7604 21.7842L52.0825 20.4611C52.1794 20.4111 53.0199 20.1753 52.6961 19.1169C52.3743 18.0666 51.304 18.3934 50.6994 18.5783L50.0508 18.7781L51.217 22.5817C51.4229 22.5168 51.6598 22.4478 51.8656 22.3818ZM50.8984 19.2178L51.4211 19.0569C51.565 19.015 51.9348 18.933 52.0537 19.3188C52.1706 19.7015 51.8478 19.8344 51.6779 19.8864L51.1533 20.0473L50.8984 19.2178Z" fill="#132321"/>
</g>
</g>
</svg>
