<svg width="91" height="56" viewBox="0 0 91 56" fill="none" xmlns="http://www.w3.org/2000/svg">
<g id="Group 32">
<g id="Group 33">
<g id="Group 31">
<path id="Path" d="M61.3896 33.9807H60.1108C59.3573 35.5277 57.4962 36.1728 55.9435 35.425C54.3964 34.6714 53.7513 32.8104 54.4992 31.2576C55.2527 29.7106 57.1138 29.0655 58.6665 29.8133C59.2203 30.0816 59.6827 30.5098 59.9966 31.0407H61.3153C60.4476 28.8314 57.9472 27.7411 55.738 28.6088C53.5287 29.4765 52.4383 31.9769 53.3061 34.1862C54.1738 36.3954 56.6742 37.4858 58.8834 36.6181C60.0709 36.1557 60.99 35.1852 61.3896 33.9807Z" fill="#132321"/>
<path id="Path_2" d="M39.7361 32.765H35.4032V33.9524H39.4393C38.7028 35.5052 36.8418 36.1674 35.289 35.431C33.7363 34.6945 33.0741 32.8335 33.8105 31.2807C34.5469 29.728 36.4079 29.0658 37.9607 29.8022C38.583 30.099 39.091 30.59 39.405 31.2065H40.6895C39.9131 28.963 37.4583 27.7699 35.2148 28.552C32.9713 29.3341 31.7782 31.7831 32.5603 34.0266C33.3367 36.2701 35.7914 37.4633 38.0349 36.6812C39.719 36.0989 40.8664 34.5404 40.9292 32.765H39.7361Z" fill="#132321"/>
<path id="Shape" fill-rule="evenodd" clip-rule="evenodd" d="M65.7312 12.8757C65.794 12.9271 65.8054 13.0242 65.754 13.087C65.7497 13.0912 65.7365 13.107 65.7148 13.1328L65.7148 13.1328L65.7147 13.1329L65.7146 13.133C65.6495 13.2105 65.5083 13.3784 65.303 13.6007C65.931 14.4228 65.8396 15.2277 65.6398 15.77C65.5085 16.1126 65.3202 16.438 65.0804 16.7177C65.4629 17.5512 65.52 18.2704 65.2517 18.8584C64.9605 19.4921 64.3725 19.789 64.0928 19.8974C64.2869 20.434 64.2755 20.9193 64.0585 21.336C63.7959 21.8441 63.2936 22.1409 62.9111 22.3065C63.031 22.5577 63.1451 22.8089 63.2536 23.0657C65.0119 27.2274 65.1261 31.9028 63.579 36.1501C60.1938 45.4381 49.9181 50.2277 40.6301 46.8424C31.3421 43.4572 26.5525 33.1815 29.9377 23.8935C29.7893 23.5909 29.7208 23.2598 29.7265 22.9287C29.207 22.7974 28.8417 22.5291 28.6247 22.1409C28.2993 21.5529 28.4363 20.8565 28.5163 20.5653C27.9111 20.297 27.5001 19.8974 27.3003 19.3894C27.0206 18.6815 27.2261 17.9622 27.3288 17.6825C26.6495 17.1915 26.5468 16.5464 26.581 16.084C26.6096 15.7758 26.6952 15.4675 26.8322 15.1878C26.7409 15.0793 26.6552 14.9708 26.5753 14.8567C26.0444 14.1145 25.9188 13.4923 25.9131 13.4637C25.9017 13.4124 25.9245 13.3553 25.9645 13.321C26.0273 13.2696 26.1243 13.2811 26.1757 13.3439C26.1763 13.3439 26.1814 13.3494 26.1912 13.3601C26.2783 13.4553 26.7356 13.9547 27.6542 14.5141C28.5962 15.085 30.2232 15.8385 32.6436 16.1811L32.764 16.1986C32.9599 16.2272 33.1603 16.2564 33.3686 16.2895L33.5474 16.3183C33.8807 16.3719 34.2257 16.4273 34.5789 16.495L34.6369 16.5055L34.637 16.5056C34.7447 16.525 34.8559 16.5451 34.9671 16.5693C37.6444 14.2173 40.9669 12.7216 44.5006 12.2763C43.6842 11.2373 43.6842 9.77022 44.5006 8.73123C45.4825 7.48674 47.2864 7.26981 48.5309 8.2517C49.7754 9.2336 49.9923 11.0375 49.0104 12.282C52.2872 12.6931 55.387 14.0061 57.9617 16.0783C58.2357 16.0212 58.5154 15.9527 58.8123 15.8728C59.1776 15.7758 59.5544 15.6673 59.9254 15.5474C62.8597 14.5998 64.755 13.5494 65.5428 12.8814C65.5942 12.8301 65.6741 12.8301 65.7312 12.8757ZM58.54 16.2495L58.2488 16.318L58.1632 16.3382C58.0695 16.3603 57.9725 16.3831 57.8721 16.4093C57.7931 16.4257 57.7153 16.4421 57.6385 16.4583L57.6383 16.4583L57.6383 16.4583C57.4208 16.5041 57.211 16.5483 57.0044 16.5863L56.6105 16.6605L56.2851 16.7176L56.1652 16.7404C55.9882 16.769 55.8227 16.7975 55.6571 16.8317C55.4801 16.866 55.3032 16.9003 55.1262 16.9288C54.698 17.003 54.2699 17.0829 53.8189 17.1914C53.9274 17.5168 54.013 17.8536 54.0701 18.1904C54.7894 17.9735 55.5943 17.768 56.4449 17.551L56.5933 17.5168L56.7132 17.4882L56.7817 17.4711L56.8274 17.4597L57.4382 17.3056L57.7922 17.2142L58.58 17.0087C58.637 16.9945 58.6926 16.9788 58.7483 16.9631L58.7484 16.963L58.7485 16.963C58.8041 16.9473 58.8597 16.9316 58.9168 16.9174L59.0652 16.8774C59.7103 16.6947 60.3268 16.5064 60.8691 16.3065C62.479 15.7128 63.792 14.651 64.6083 13.8746C63.4438 14.554 61.8054 15.2561 60.0071 15.8327C59.6304 15.9526 59.2536 16.0668 58.8825 16.1638L58.54 16.2495ZM56.1312 39.9922L55.7088 38.742L56.959 39.1645C57.0047 39.1816 57.0503 39.1702 57.0903 39.1417L58.1521 38.3539L58.135 39.6726C58.135 39.7182 58.1578 39.7639 58.1978 39.7924L59.2767 40.5574L58.0151 40.9513C57.9694 40.9627 57.9352 41.0027 57.9238 41.0426L57.5299 42.3043L56.7649 41.2253C56.7364 41.1854 56.6964 41.1682 56.6507 41.1625L55.332 41.1797L56.1255 40.1236C56.1427 40.0836 56.1484 40.0322 56.1312 39.9922ZM59.4439 40.7971L58.1595 41.1967L57.7427 42.5326C58.0053 42.2985 58.2622 42.0588 58.5134 41.8076C58.8388 41.4822 59.1471 41.1454 59.4439 40.7971ZM58.4098 39.604L58.4326 38.0684C58.4326 38.017 58.4041 37.9656 58.3527 37.9371C58.3071 37.9143 58.2443 37.9143 58.2043 37.9485L56.9769 38.8676L55.5212 38.3767C55.4698 38.3595 55.4127 38.371 55.3728 38.4109C55.3328 38.4509 55.3214 38.508 55.3385 38.5593L55.8295 40.0151L54.9104 41.2424C54.8647 41.3052 54.8761 41.3966 54.9389 41.4422C54.9618 41.4594 54.996 41.4708 55.0246 41.4708L56.5602 41.4537L57.445 42.7096C57.4565 42.7267 57.4736 42.7438 57.4907 42.7495C56.6059 43.5031 55.6468 44.1539 54.6249 44.7076C54.6192 44.6905 54.6135 44.6791 54.6078 44.6676L53.8143 43.3546L54.448 41.956C54.4822 41.8818 54.448 41.8019 54.3795 41.7676C54.3509 41.7562 54.3167 41.7505 54.2881 41.7562L52.7925 42.1044L51.6621 41.0712C51.6051 41.0198 51.5137 41.0198 51.4623 41.0826C51.4395 41.1054 51.4281 41.134 51.4281 41.1682L51.2968 42.6981L49.9667 43.4517C49.8982 43.4917 49.8753 43.5773 49.9153 43.6458C49.9324 43.6743 49.9552 43.6915 49.9838 43.7086L51.3938 44.308L51.7021 45.8094C51.7135 45.8608 51.7478 45.9007 51.7991 45.9178C50.6574 46.2832 49.4814 46.5173 48.2883 46.6257C48.3168 46.5915 48.334 46.5458 48.3226 46.5058L48.0657 44.993L49.1617 43.9198C49.2188 43.8627 49.2188 43.7771 49.1617 43.72C49.1389 43.6972 49.1104 43.6857 49.0818 43.68L47.5633 43.4574L46.884 42.0816C46.8611 42.0302 46.8098 42.0017 46.7584 42.0017C46.7013 42.0017 46.6556 42.0302 46.6328 42.0816L45.9535 43.4574L44.4349 43.68C44.355 43.6915 44.3036 43.7657 44.3151 43.8399C44.3208 43.8684 44.3322 43.897 44.355 43.9198L45.4511 44.993L45.1942 46.5058C45.1885 46.5515 45.1999 46.5972 45.2342 46.6257C44.041 46.5173 42.8651 46.2832 41.7233 45.9178C41.7747 45.9007 41.8089 45.8608 41.8204 45.8094L42.1286 44.308L43.5444 43.7086C43.6186 43.68 43.6529 43.5944 43.6186 43.5202C43.6072 43.4917 43.5843 43.4688 43.5558 43.4517L42.2257 42.6924L42.0944 41.1625C42.0887 41.0826 42.0202 41.0255 41.9402 41.0312C41.9117 41.0312 41.8774 41.0483 41.8546 41.0655L40.7243 42.0987L39.2286 41.7505C39.1544 41.7334 39.0745 41.779 39.0574 41.859C39.0516 41.8875 39.0516 41.9218 39.0688 41.9503L39.6853 43.3432L38.8918 44.6562C38.889 44.6619 38.8861 44.6691 38.8832 44.6762C38.8804 44.6833 38.8775 44.6905 38.8747 44.6962C37.8528 44.1482 36.8938 43.4917 36.0089 42.7381C36.026 42.7267 36.0432 42.7153 36.0546 42.6981L36.9394 41.4422L38.4751 41.4594C38.5265 41.4594 38.5778 41.4308 38.6064 41.3794C38.6292 41.3338 38.6235 41.271 38.595 41.231L37.6759 40.0036L38.1668 38.5479C38.1896 38.4737 38.1554 38.3938 38.0812 38.3653C38.0526 38.3538 38.0184 38.3538 37.9898 38.3653L36.5398 38.8562L35.3068 37.9371C35.244 37.8914 35.1526 37.9028 35.1069 37.9656C35.0898 37.9885 35.0784 38.0227 35.0784 38.0513L35.0955 39.5869L33.8453 40.4718C33.8425 40.4746 33.8382 40.4775 33.8339 40.4803L33.8339 40.4804C33.8296 40.4832 33.8253 40.486 33.8225 40.4889C30.2489 36.0647 29.1756 30.1219 30.9853 24.7272C31.3335 24.8242 31.7502 24.8471 32.2298 24.79C32.2697 25.0926 32.4239 25.7433 32.9662 26.143C33.4229 26.4798 34.0451 26.554 34.8158 26.3599C34.9014 26.6111 35.1298 27.1077 35.6379 27.3532C36.1003 27.5815 36.6768 27.5416 37.3448 27.239C37.6131 27.4388 37.9099 27.5873 38.2296 27.69C38.4465 27.7585 38.6749 27.7985 38.9089 27.7985C39.3942 27.7985 39.8623 27.6215 40.2276 27.2961C40.8213 27.376 41.4208 27.3589 42.003 27.239C43.2133 26.9821 44.0239 26.2628 44.3493 25.1496C44.355 25.1611 44.3664 25.1725 44.3779 25.1782C44.9259 25.7947 45.4111 26.3428 45.845 26.8451L45.9135 32.5995H43.4017V28.318H42.2143V36.8353H43.4017V33.8097H45.9306L45.9592 36.6412V36.6526L45.9477 36.6641C45.3597 37.4347 45.1599 38.0969 45.354 38.6336C45.4568 38.919 45.6737 39.1702 45.9934 39.3757V39.3871L46.0105 40.8257C46.022 41.231 46.3588 41.5507 46.7641 41.5393C47.1523 41.5279 47.4663 41.2139 47.4777 40.8257L47.4891 39.9466V39.9351C48.3168 40.2092 48.6194 40.7572 48.6194 40.7629C48.648 40.8086 48.6936 40.8428 48.7507 40.8428C48.7621 40.8428 48.7735 40.8428 48.785 40.8371C48.8535 40.82 48.8991 40.7629 48.8991 40.6944C48.8991 40.6773 48.8991 40.2263 48.6251 39.6554C48.3911 39.1702 47.8373 38.8733 47.5005 38.7534V38.742L47.5233 36.8296C47.843 36.5727 48.1399 36.3158 48.4139 36.0589C49.196 35.3168 49.7669 34.5747 50.1436 33.8097H50.469V36.8353H51.6564V28.3408H50.469V29.9906C50.3206 29.4369 50.1265 28.9002 49.8924 28.3808C49.5842 27.6729 49.0476 26.8908 48.5167 26.1258C49.2702 26.4798 50.6688 27.0221 51.7249 26.7367C51.7441 26.7462 51.7671 26.7584 51.7938 26.7725L51.794 26.7726C51.8467 26.8004 51.9137 26.8358 51.9932 26.8737H51.999C52.0104 26.8794 52.0218 26.8851 52.0389 26.8908C52.3415 27.0221 52.7867 27.1819 53.2549 27.1819C53.409 27.1819 53.5688 27.1648 53.7173 27.1248C54.0883 27.0278 54.408 26.7937 54.6135 26.4683C54.7677 26.5996 54.9389 26.7195 55.1159 26.8223C55.6297 27.1248 56.0978 27.2333 56.5088 27.1306C56.9998 27.0107 57.3822 26.6054 57.6334 25.926C57.9531 25.9717 58.7866 26.0288 59.426 25.5664C59.8141 25.2809 60.0596 24.8585 60.1452 24.299C60.4535 24.3447 61.1328 24.379 61.6923 23.9794C61.8407 23.8766 61.9663 23.7453 62.0748 23.6026C64.4496 29.2485 63.5305 35.7507 59.6714 40.5117C59.6657 40.506 59.66 40.5003 59.6486 40.4946L58.4098 39.604ZM54.2203 44.5589L53.5352 43.4286C53.5124 43.3829 53.5124 43.3315 53.5295 43.2916L54.0775 42.087L52.7931 42.3839C52.7474 42.3953 52.7017 42.3839 52.6675 42.3496L51.6913 41.4591L51.5771 42.7721C51.5714 42.8178 51.5429 42.8634 51.5029 42.8863L50.3555 43.537L51.5714 44.0508C51.6171 44.068 51.6456 44.1079 51.657 44.1536L51.9196 45.4495L52.7817 44.4561C52.8159 44.4219 52.8616 44.4048 52.9073 44.4105L54.2203 44.5589ZM52.9494 44.7019L54.3309 44.856C53.9713 45.0387 53.6002 45.21 53.2234 45.3698C52.8067 45.5468 52.3785 45.7066 51.9504 45.8493L52.9494 44.7019ZM44.75 43.9026L45.6976 44.8217C45.7376 44.8559 45.749 44.9016 45.7433 44.9416L45.5207 46.2432L46.691 45.6266C46.7309 45.6038 46.7823 45.6038 46.8223 45.6266L47.9868 46.2432L47.7642 44.9416C47.7585 44.8959 47.7699 44.8502 47.8041 44.816L48.7518 43.8969L47.4445 43.7085C47.3988 43.7028 47.3589 43.6685 47.336 43.6286L46.7537 42.4469L46.1658 43.6343C46.1429 43.68 46.103 43.7085 46.0573 43.7142L44.75 43.9026ZM46.7602 45.9232L48.096 46.6254C47.6565 46.6597 47.2112 46.6768 46.7602 46.6768C46.3149 46.6768 45.8697 46.6597 45.4244 46.6254L46.7602 45.9232ZM40.6114 44.4048C40.6513 44.4048 40.6913 44.4276 40.7198 44.4561L41.5819 45.4495L41.8445 44.1536C41.8559 44.1079 41.8844 44.068 41.9301 44.0508L43.146 43.537L41.9986 42.8863C41.9529 42.8634 41.9301 42.8178 41.9244 42.7721L41.8102 41.4591L40.834 42.3496C40.7941 42.3839 40.7484 42.3953 40.7027 42.3839L39.4183 42.087L39.9663 43.2916C39.9891 43.3315 39.9834 43.3829 39.9606 43.4229L39.2812 44.5532L40.5942 44.4048H40.6114ZM41.5557 45.8493C41.1275 45.7066 40.7051 45.5468 40.2826 45.3698C39.9059 45.21 39.5405 45.0387 39.1808 44.856L40.5623 44.7019L41.5557 45.8493ZM35.5116 40.9455C35.5516 40.9569 35.5915 40.9912 35.603 41.0368L36.0026 42.2985L36.7675 41.2195C36.7961 41.1796 36.8417 41.1567 36.8874 41.1567L38.2061 41.1738L37.4183 40.1177C37.3898 40.0778 37.3784 40.0321 37.3955 39.9864L37.8179 38.7362L36.5677 39.1587C36.5221 39.1701 36.4764 39.1644 36.4364 39.1358L35.3746 38.348L35.3917 39.6668C35.3917 39.7181 35.3689 39.7581 35.3289 39.7866L34.25 40.5516L35.5116 40.9455ZM35.7642 42.5266C35.5016 42.2925 35.2447 42.0528 34.9936 41.8016C34.6682 41.4762 34.3599 41.1394 34.063 40.7912L35.3475 41.1908L35.7642 42.5266ZM36.5377 16.9234C38.57 17.42 40.5337 18.1451 41.3729 19.1555C41.3615 18.9614 41.3615 18.7844 41.3615 18.6246C41.4186 17.0147 42.0294 15.4563 43.0113 14.4572C43.2511 14.2118 43.6678 13.8807 44.3243 13.5952C41.4814 14.012 38.7983 15.1594 36.5377 16.9234ZM41.6639 18.6244C41.7153 17.0887 42.2976 15.6045 43.2281 14.6568C43.5307 14.36 43.8789 14.1202 44.2671 13.9433C44.7238 13.732 45.2033 13.5779 45.7 13.4866L45.7057 14.1145L45.7228 15.7872C45.5915 15.8728 45.4716 15.9755 45.3574 16.0783C44.307 17.0602 44.1187 18.299 44.1472 19.161C44.1757 20.1143 44.4897 21.1362 44.9921 21.9126L45.0435 21.9868C45.1748 22.1809 45.3346 22.3978 45.523 22.6376C45.6143 22.7575 45.7114 22.8831 45.8198 23.0144L45.9683 23.2027L46.1167 23.3911C46.1338 23.414 46.1567 23.4425 46.1795 23.4653C46.2296 23.5291 46.2816 23.5939 46.3342 23.6595C46.4135 23.7583 46.4945 23.8591 46.5734 23.962C46.8132 24.2646 47.0986 24.6299 47.3897 25.0181C47.4222 25.0578 47.4524 25.0998 47.4832 25.1426L47.4833 25.1427L47.4833 25.1427C47.5012 25.1676 47.5193 25.1927 47.5382 25.2179C47.5639 25.2522 47.5881 25.285 47.6124 25.3179C47.6367 25.3507 47.6609 25.3835 47.6866 25.4177C47.7323 25.4805 47.7779 25.5447 47.8236 25.609C47.8693 25.6732 47.9149 25.7374 47.9606 25.8002L48.0348 25.9087L48.189 26.1313C48.7484 26.9305 49.325 27.764 49.6447 28.489C50.4268 30.2815 50.4667 31.3719 50.3697 32.1254C50.3583 32.2053 50.3468 32.2796 50.3354 32.3538L50.3281 32.3905C50.3133 32.4652 50.2979 32.5429 50.2783 32.6164V32.6278C50.1813 33.0388 50.0272 33.4327 49.8331 33.8038C49.7474 33.9693 49.6504 34.1349 49.5419 34.3004C49.1594 34.8941 48.6399 35.4764 47.9891 36.0587C47.8521 36.1843 47.7037 36.3099 47.5496 36.4355L47.5667 35.2252L47.6752 35.0996L47.6809 35.0939L47.7208 35.0483C47.7294 35.0397 47.7365 35.0311 47.7437 35.0226L47.7499 35.0152L47.755 35.0092L47.7608 35.0028L47.7665 34.9969L47.7836 34.9798C47.9891 34.7457 48.1718 34.4888 48.3374 34.2262C48.4173 34.0892 48.4915 33.9465 48.56 33.8038C48.6685 33.5583 48.7484 33.3014 48.7998 33.0388C48.7998 33.0331 48.7998 33.0217 48.8055 33.016L48.8226 32.9132C48.8226 32.9075 48.824 32.9004 48.8255 32.8933L48.8255 32.8932C48.8269 32.8861 48.8283 32.879 48.8283 32.8733L48.8299 32.8644L48.8317 32.8518L48.8329 32.842L48.834 32.8305L48.834 32.8304L48.834 32.8304L48.8359 32.8131C48.8369 32.8046 48.838 32.7961 48.8397 32.7876L48.8455 32.7305L48.8569 32.6563C48.8569 32.6392 48.8569 32.6278 48.8626 32.6107C48.8661 32.6001 48.8653 32.5982 48.8641 32.5956C48.8634 32.5941 48.8626 32.5922 48.8626 32.5878L48.8683 32.525C48.8683 32.5108 48.8697 32.4979 48.8711 32.4851C48.8726 32.4722 48.874 32.4594 48.874 32.4451V32.3994C48.874 32.3815 48.8756 32.3636 48.877 32.3465C48.8784 32.3309 48.8797 32.316 48.8797 32.3024V32.2796V32.2681C48.8797 32.2419 48.8803 32.2151 48.8809 32.1878C48.8822 32.132 48.8835 32.0745 48.8797 32.017C48.8797 31.9877 48.8782 31.9599 48.8767 31.9328C48.8753 31.9071 48.874 31.8821 48.874 31.8571V31.8457C48.874 31.8361 48.8735 31.8261 48.8729 31.8158L48.8711 31.7916L48.8711 31.7915C48.8697 31.7729 48.8683 31.7544 48.8683 31.7372V31.7201V31.6916V31.663C48.8683 31.6573 48.8683 31.6345 48.8626 31.6174L48.8569 31.5774C48.8569 31.5603 48.8569 31.5488 48.8512 31.5317V31.5089V31.4918C48.7941 30.9894 48.6628 30.4984 48.4573 30.036L48.4516 30.0246C48.4516 30.0246 48.4516 30.0189 48.4458 30.0189C48.4287 29.9732 48.4059 29.9276 48.383 29.8876L48.3773 29.8762C48.3773 29.8705 48.3716 29.8648 48.3716 29.8648C48.3688 29.8591 48.3659 29.8519 48.3631 29.8448C48.3602 29.8377 48.3574 29.8305 48.3545 29.8248C48.3431 29.802 48.3317 29.7792 48.3203 29.7506L48.3031 29.7164C48.3003 29.7106 48.2974 29.7035 48.2946 29.6964L48.2899 29.6849C48.2886 29.6819 48.2873 29.679 48.286 29.6764L48.2803 29.6593L48.2403 29.5851L48.2232 29.5508C48.2199 29.5458 48.2171 29.5409 48.2144 29.5359L48.2089 29.5251C48.2047 29.5166 48.2004 29.508 48.1947 29.4994C48.189 29.4909 48.1847 29.4823 48.1804 29.4737L48.1742 29.4616C48.1717 29.4571 48.1691 29.4526 48.1661 29.448C48.1547 29.4309 48.149 29.4195 48.1433 29.4081V29.4024L48.1262 29.3681L48.1147 29.3453C48.1126 29.341 48.1097 29.3368 48.1066 29.3323C48.1013 29.3246 48.0955 29.3161 48.0919 29.3053V29.2996L48.0691 29.2597L48.0577 29.2425L48.0348 29.2026V29.1969L48.012 29.1626L48.0006 29.1455L47.972 29.0998L47.9606 29.0827L47.9549 29.0713L47.9435 29.0542L47.9206 29.0142L47.9092 28.9971L47.9035 28.9856C47.8978 28.9799 47.8921 28.9742 47.8921 28.9685C47.8835 28.9571 47.8764 28.9457 47.8693 28.9343C47.8621 28.9229 47.855 28.9114 47.8464 28.9C47.8436 28.8972 47.8407 28.8929 47.8379 28.8886C47.835 28.8843 47.8322 28.88 47.8293 28.8772L47.8122 28.8543L47.7779 28.7973L47.7665 28.7801C47.7496 28.759 47.7358 28.7378 47.7205 28.7143L47.7037 28.6888L47.698 28.6831L47.6883 28.6689L47.678 28.6545L47.6679 28.6403L47.658 28.626C47.6352 28.5917 47.6109 28.5575 47.5867 28.5232L47.5866 28.5231C47.5624 28.4889 47.5381 28.4547 47.5153 28.4205L47.4763 28.3681L47.4411 28.3206C47.4169 28.2878 47.3926 28.2549 47.3669 28.2207C47.1785 27.9695 46.9616 27.6955 46.7161 27.3986L46.7047 27.3872L46.6762 27.353L46.6134 27.2787L46.5962 27.2616L46.5391 27.1931C46.425 27.0561 46.3051 26.9134 46.1681 26.7593C46.1567 26.7478 46.1452 26.7364 46.1338 26.7193C46.1053 26.685 46.071 26.6451 46.0368 26.6108L46.0139 26.5823L45.9226 26.4738L45.8998 26.451L45.8655 26.411L45.8427 26.3825C45.7285 26.2512 45.6029 26.1085 45.4659 25.9543L45.4317 25.9144C45.3425 25.8136 45.2514 25.7108 45.1585 25.6061C44.9778 25.4024 44.7905 25.1911 44.5982 24.9724C44.5159 24.8808 44.4327 24.7872 44.3482 24.6921L44.3479 24.6918L44.3476 24.6915L44.3466 24.6903L44.3462 24.6899C44.2259 24.5546 44.1029 24.4163 43.9759 24.276L43.9702 24.2646L43.9645 24.2531L43.8789 24.1561C41.9665 22.0325 41.6183 19.9716 41.6639 18.6244ZM45.8063 22.5236L45.7321 16.147C45.675 16.1927 45.6179 16.244 45.5609 16.2954L45.5608 16.2955C44.5903 17.2031 44.4191 18.3506 44.4419 19.1498C44.4762 20.0346 44.7273 20.9024 45.184 21.6616L45.2868 21.8158C45.4238 22.0213 45.6008 22.261 45.8063 22.5236ZM46.0192 15.9413L46.0135 15.6045L45.9963 14.1431L45.9849 13.4295V13.2754C46.1505 13.321 46.3217 13.3496 46.4873 13.3667C46.5729 13.3724 46.6586 13.3781 46.7499 13.3781C46.9383 13.3781 47.1267 13.361 47.315 13.321C47.3836 13.3096 47.4521 13.2925 47.5149 13.2754V13.3267V13.4352L47.5034 14.3258L47.492 15.2848L47.4863 15.576L47.3778 24.5386C47.2248 24.34 47.0777 24.1504 46.9409 23.9742L46.9395 23.9723L46.9375 23.9698L46.7898 23.7793C46.6528 23.6081 46.5215 23.4425 46.396 23.2827L46.0991 22.9059L46.0192 15.9413ZM52.9262 16.0157C52.4867 15.3706 51.9501 14.9367 51.4363 14.5942C51.1965 14.4344 50.9625 14.3031 50.7455 14.1832L50.6599 14.1375C50.6116 14.1093 50.5647 14.0826 50.519 14.0565L50.5187 14.0563L50.5186 14.0563C50.4348 14.0084 50.3549 13.9628 50.2774 13.9149C50.1404 13.8349 49.9977 13.7721 49.8493 13.7151C49.3183 13.5153 48.5933 13.384 47.817 13.3497V13.4639L47.8055 14.3716L47.7941 15.3078C47.9882 15.3249 48.1766 15.3535 48.365 15.3934C48.9073 15.5133 49.4325 15.7131 49.9178 15.9814C50.0719 15.833 50.2546 15.7131 50.4487 15.6218C50.5229 15.5932 50.6085 15.6275 50.6428 15.7017C50.6713 15.7759 50.6371 15.8615 50.5628 15.8958C50.5571 15.8958 49.9121 16.1755 49.6951 16.8377C49.6437 16.9976 49.6152 17.1631 49.6209 17.3344C49.6266 17.7226 49.7693 18.145 50.0376 18.6074L50.0434 18.6131L50.0719 18.6645C50.089 18.6987 50.1118 18.733 50.1347 18.7672L50.1347 18.7672L50.1461 18.7844L50.1861 18.8472L50.2032 18.8757L50.2317 18.9157L50.2374 18.9271L50.266 18.9671L50.2945 19.007C50.3345 19.0641 50.3802 19.1212 50.4258 19.1726V19.1783C50.4372 19.1925 50.4487 19.2054 50.4601 19.2182L50.4601 19.2182L50.4601 19.2183C50.4715 19.2311 50.4829 19.2439 50.4943 19.2582C50.6199 19.4009 50.7569 19.5379 50.8997 19.6635C50.9796 19.732 51.0595 19.8005 51.1394 19.8633L51.1908 19.9033L51.2193 19.9204C51.2299 19.9275 51.2361 19.9323 51.2447 19.9391C51.2501 19.9432 51.2563 19.9481 51.265 19.9547C51.2757 19.9653 51.2886 19.9738 51.3023 19.9828C51.3106 19.9882 51.3192 19.9939 51.3278 20.0003C51.3478 20.0146 51.3678 20.0274 51.3877 20.0403C51.4077 20.0531 51.4277 20.066 51.4477 20.0802L51.5105 20.1259L51.539 20.143L51.6304 20.2001C52.3211 20.6112 53.069 20.9023 53.851 21.0678V21.0393L53.8682 20.8167L53.8739 20.771L53.891 20.5312V20.4913L53.8921 20.4752C53.8974 20.3956 53.9024 20.3207 53.9024 20.2458V20.2344C53.9024 20.1973 53.9039 20.1587 53.9053 20.1202L53.9053 20.12C53.9067 20.0816 53.9081 20.0431 53.9081 20.006V19.9718V19.7606V19.6692V19.5379V19.4352C53.9081 19.4144 53.9066 19.3921 53.9051 19.3707L53.9051 19.3706C53.9037 19.3508 53.9024 19.3317 53.9024 19.3153C53.9024 19.2982 53.901 19.2796 53.8996 19.261L53.8996 19.261C53.8981 19.2424 53.8967 19.2239 53.8967 19.2068C53.8967 19.1889 53.8952 19.1663 53.8937 19.1448C53.8923 19.1251 53.891 19.1063 53.891 19.0926C53.891 19.0784 53.8896 19.0627 53.8882 19.047L53.8881 19.0469C53.8867 19.0312 53.8853 19.0156 53.8853 19.0013C53.8798 18.9577 53.8757 18.9141 53.8716 18.8711L53.8716 18.871C53.8671 18.824 53.8627 18.7777 53.8568 18.733L53.8396 18.5789C53.8318 18.5316 53.8251 18.4856 53.8185 18.4402L53.8185 18.44L53.8185 18.4398V18.4398C53.8108 18.3866 53.8032 18.3343 53.794 18.282C53.7369 17.9338 53.6512 17.597 53.5428 17.2659C53.5142 17.1688 53.48 17.0775 53.44 16.9861C53.3772 16.8206 53.303 16.6665 53.2231 16.5123C53.2003 16.4609 53.1717 16.4096 53.1432 16.3582C53.0747 16.244 53.0062 16.1298 52.9262 16.0157ZM50.9387 13.9436C52.8568 14.4402 54.6664 15.2794 56.2877 16.4154L56.2477 16.4211C56.1888 16.432 56.1307 16.4429 56.0732 16.4536L56.073 16.4537L56.0728 16.4537L56.0725 16.4537L56.0723 16.4538C55.9185 16.4825 55.7692 16.5104 55.6198 16.5353C55.5313 16.5524 55.4428 16.5681 55.3543 16.5838C55.2658 16.5995 55.1774 16.6152 55.0889 16.6324L55.009 16.6469L55.0089 16.6469C54.5947 16.7221 54.1703 16.7991 53.7359 16.9064C53.6446 16.6666 53.5304 16.4326 53.4048 16.2099C53.3306 16.0843 53.2564 15.9587 53.1765 15.8446C52.7084 15.1652 52.1546 14.7085 51.618 14.3546C51.3839 14.2005 51.1556 14.0635 50.9387 13.9436ZM51.0763 22.1184C51.6357 22.6036 52.4635 23.5912 53.1942 24.4647L53.2233 24.4993L53.2233 24.4994C53.8403 25.2341 54.4144 25.9179 54.6842 26.1202L54.6956 26.1316C54.6963 26.132 54.701 26.1361 54.7093 26.1435C54.8285 26.2495 55.696 27.0209 56.4539 26.8395C56.8363 26.7481 57.1389 26.4113 57.3558 25.8519C56.8759 25.6768 56.396 25.1891 55.7062 24.488L55.6832 24.4647C55.6115 24.393 55.5375 24.3184 55.4609 24.2412L55.4609 24.2411C55.2995 24.0785 55.1268 23.9045 54.9411 23.7225C54.7355 23.5284 54.5186 23.3001 54.2903 23.0546L54.2897 23.0541C53.1995 21.8953 51.841 20.4515 50.2542 20.4172C49.8146 20.7141 49.4093 21.0509 49.0383 21.4219C49.5178 21.4162 50.3684 21.5019 51.0763 22.1184ZM54.3971 26.2683C54.2315 26.5423 53.9632 26.7478 53.6549 26.8277C53.1126 26.9704 52.5018 26.7592 52.1421 26.5994C51.7425 26.3311 51.2287 25.4805 50.7321 24.6527C50.3325 23.9848 49.9557 23.3569 49.6075 22.9801C49.1679 22.5005 48.7512 22.3978 48.4771 22.3978C48.4086 22.3978 48.3458 22.4035 48.2773 22.4149C48.4144 22.1752 48.5742 21.9468 48.7512 21.7356C48.9852 21.707 50.0527 21.6214 50.8805 22.3407C51.4228 22.8088 52.2392 23.785 52.9642 24.6527L53.0315 24.7329C53.6024 25.4127 54.0949 25.9991 54.3971 26.2683ZM50.7657 20.1459L50.7657 20.146C50.7272 20.1917 50.6886 20.2375 50.6516 20.2859C50.8799 20.3613 51.1082 20.469 51.3252 20.6306C51.1768 20.4367 51.0283 20.2321 50.8799 20.0059C50.8428 20.0544 50.8043 20.1001 50.7657 20.1459L50.7657 20.1459ZM55.893 24.259C55.7869 24.1529 55.6743 24.039 55.5565 23.9198L55.5561 23.9195C55.4268 23.7887 55.2912 23.6515 55.1509 23.5112C54.967 23.3273 54.7627 23.1128 54.5476 22.8869L54.5115 22.849C53.9178 22.2153 53.1985 21.456 52.3879 20.9023C52.6219 21.0051 52.8446 21.085 53.0444 21.1478L53.0558 21.1535L53.1129 21.1706L53.1357 21.1763L53.1814 21.1877L53.2099 21.1991L53.2442 21.2106L53.2841 21.222L53.307 21.2277L53.3526 21.2391H53.3641L53.4212 21.2562C53.6038 21.3076 53.7865 21.3476 53.9749 21.3761H53.9977H54.0091H54.0263H54.0377L54.0548 21.3704L54.0662 21.3647C54.0719 21.3647 54.0777 21.359 54.0834 21.3533H54.0891L54.0948 21.3476L54.1005 21.3419L54.1119 21.3304L54.1176 21.3247L54.129 21.3076L54.1347 21.3019L54.1383 21.2918C54.1426 21.2798 54.1462 21.2698 54.1462 21.2562C54.1633 21.085 54.1804 20.9137 54.1918 20.7482C54.209 20.5141 54.2204 20.2858 54.2261 20.0631V19.9489C55.168 20.1716 56.2241 20.8167 57.1432 21.7301C57.7769 22.3637 59.2668 23.8251 59.8891 24.2076C59.8206 24.71 59.6151 25.0868 59.2783 25.3265C58.5989 25.8175 57.5999 25.6177 57.5942 25.612C57.1261 25.5149 56.6066 24.9897 55.893 24.259ZM49.7022 16.1867C49.2569 15.9527 48.7831 15.7757 48.2921 15.6672C48.1266 15.6273 47.961 15.6044 47.7898 15.593L47.7213 21.4787C47.9039 21.1305 48.1094 20.7936 48.3378 20.474C48.7717 19.8688 49.274 19.3208 49.8392 18.8413C49.8224 18.8203 49.8087 18.7963 49.7959 18.7737C49.7912 18.7655 49.7866 18.7575 49.7821 18.7499C49.4795 18.2304 49.3254 17.7452 49.3197 17.3056C49.3197 17.1058 49.3482 16.9117 49.411 16.7234C49.4738 16.5293 49.5766 16.3466 49.7022 16.1867ZM49.999 19.0868C50.1874 19.3494 50.4043 19.5891 50.6441 19.8061C49.4282 20.5824 48.2693 21.4616 47.6984 22.9401L47.7098 22.2094C47.7213 22.1752 48.3321 20.5139 49.999 19.0868ZM48.0856 22.8031C47.9086 23.1856 47.783 23.5909 47.7145 24.0019C47.7145 24.0247 47.7031 24.0419 47.6917 24.059L47.6802 24.921C47.8458 25.1379 48.0113 25.372 48.1712 25.6003C48.4224 25.743 50.2948 26.7421 51.5736 26.4623C51.231 26.057 50.86 25.4462 50.4775 24.8068C50.1064 24.1846 49.7182 23.5395 49.3928 23.1856C48.7021 22.432 48.1255 22.7802 48.1198 22.7859L48.0856 22.8031ZM48.2182 33.8097C48.0412 34.1579 47.8186 34.4833 47.5617 34.7744L47.5731 33.8097H48.2182ZM47.629 29.1627L47.5891 32.6221L48.5595 32.6507V32.6449C48.5652 32.6278 48.5652 32.6164 48.5652 32.5993C48.5652 32.5879 48.5667 32.575 48.5681 32.5622C48.5695 32.5493 48.5709 32.5365 48.5709 32.5251C48.5709 32.5137 48.5724 32.5037 48.5738 32.4937L48.5738 32.4937C48.5752 32.4837 48.5767 32.4737 48.5767 32.4623V32.4052C48.5824 32.3766 48.5824 32.3481 48.5824 32.3196V32.2967V32.0455V32.0113V31.9371V31.9199V31.8971C48.5767 31.8686 48.5767 31.8457 48.5767 31.8229C48.5767 31.7829 48.5767 31.743 48.5709 31.7087C48.5681 31.6916 48.5667 31.673 48.5652 31.6545C48.5638 31.6359 48.5624 31.6174 48.5595 31.6003C48.5595 31.5774 48.5595 31.5603 48.5538 31.5318C48.5538 31.5032 48.5481 31.469 48.5424 31.4404C48.5424 31.4319 48.541 31.4219 48.5395 31.4119C48.5381 31.4019 48.5367 31.3919 48.5367 31.3833C48.5336 31.3584 48.5287 31.3351 48.5241 31.3126L48.5241 31.3126C48.5202 31.2939 48.5164 31.2758 48.5139 31.2577C48.5139 31.252 48.5124 31.2477 48.511 31.2435C48.5096 31.2392 48.5081 31.2349 48.5081 31.2292C48.5024 31.2064 48.4982 31.1835 48.4939 31.1607C48.4896 31.1379 48.4853 31.115 48.4796 31.0922C48.4796 31.0865 48.4782 31.0822 48.4767 31.0779C48.476 31.0758 48.4753 31.0736 48.4748 31.0713C48.4743 31.069 48.4739 31.0665 48.4739 31.0636L48.4396 30.9266C48.4396 30.9247 48.439 30.9221 48.4381 30.9193L48.4368 30.9152L48.4355 30.9113C48.4346 30.9084 48.4339 30.9058 48.4339 30.9038C48.4275 30.8747 48.4192 30.8475 48.4111 30.821L48.4111 30.821L48.4032 30.7945L48.398 30.7764L48.394 30.7611L48.3883 30.7497C48.3812 30.7285 48.3751 30.7084 48.3692 30.6888C48.3608 30.6607 48.3527 30.6338 48.3426 30.6069C48.3426 30.6057 48.3423 30.6047 48.3419 30.6039C48.3415 30.6032 48.341 30.6025 48.3404 30.6019L48.3397 30.6012C48.3383 30.5998 48.3369 30.5984 48.3369 30.5955L48.2855 30.4585L48.2798 30.4357L48.2284 30.2987L48.217 30.2701C48.2085 30.2473 48.1985 30.2245 48.1885 30.2017L48.1885 30.2016L48.1884 30.2015C48.1784 30.1787 48.1685 30.1559 48.1599 30.1331L48.1485 30.1103C48.1314 30.0589 48.1085 30.0132 48.0857 29.9676L48.08 29.9562L48.0115 29.8191C48.0086 29.8163 48.0072 29.812 48.0058 29.8077C48.0044 29.8035 48.0029 29.7992 48.0001 29.7963C47.9772 29.7564 47.9544 29.7107 47.9316 29.665L47.9144 29.6365C47.903 29.6137 47.8902 29.5923 47.8774 29.5709L47.8773 29.5708C47.8645 29.5494 47.8517 29.528 47.8402 29.5052L47.8231 29.4709C47.8088 29.4481 47.796 29.4267 47.7831 29.4053C47.7703 29.3839 47.7575 29.3625 47.7432 29.3396L47.7204 29.3054C47.7061 29.2854 47.6932 29.264 47.6804 29.2426C47.6675 29.2212 47.6547 29.1998 47.6404 29.1798L47.629 29.1627ZM47.508 39.6266C47.4566 39.6095 47.4052 39.598 47.3538 39.5866C47.3025 39.5752 47.2568 39.5638 47.2111 39.5524C46.8914 39.4725 46.5889 39.3583 46.2977 39.2099C46.195 39.1528 46.0922 39.09 46.0009 39.0101C45.841 38.8845 45.7154 38.7189 45.6412 38.5305C45.5099 38.1595 45.6241 37.6971 45.978 37.149L45.9895 37.8626C45.9952 38.1081 46.1036 38.3421 46.292 38.5077C46.566 38.7646 46.9656 38.9016 47.2168 38.9758L47.331 39.0101C47.3938 39.0272 47.4566 39.05 47.5137 39.0728C47.8219 39.1984 48.2101 39.4496 48.3757 39.7864C48.4385 39.912 48.4899 40.049 48.5298 40.1803C48.233 39.9234 47.8847 39.7351 47.508 39.6266ZM47.2071 39.8664V39.855C46.8931 39.7808 46.5962 39.678 46.2994 39.5467V39.5581L46.3165 40.8255C46.3165 41.0709 46.5106 41.265 46.7561 41.265C47.0015 41.265 47.1956 41.0652 47.1956 40.8255L47.2071 39.8664ZM47.2918 32.6277L47.2804 33.8151L47.2632 35.1281L47.2575 35.5733L47.2233 38.6674C46.7894 38.5247 46.3156 38.3021 46.2871 37.8911L46.2756 36.7322L46.2699 36.2584L46.2414 33.8036L46.23 32.6162L46.1672 27.2215C46.6296 27.7696 47.0235 28.2605 47.3489 28.7229L47.2918 32.6277ZM43.0649 23.6766C43.0021 23.6747 42.4031 23.6564 41.7506 24.4417C41.1626 25.1496 40.586 26.5539 40.3976 27.0391C40.9228 27.0962 41.448 27.0734 41.9618 26.9706C43.1321 26.7194 43.8628 26.023 44.1254 24.9098C44.0747 24.8537 44.0239 24.7964 43.9726 24.7384L43.9721 24.7378L43.972 24.7377L43.9717 24.7374C43.9136 24.6717 43.8548 24.6052 43.7943 24.5387L43.7886 24.533L43.7829 24.5273C43.7715 24.5102 43.7601 24.4988 43.7429 24.4816L43.6402 24.3675C43.4347 24.1334 43.2463 23.9051 43.075 23.6767H43.0693L43.0649 23.6766ZM40.0657 27.0791C39.5633 27.5129 38.9811 27.6328 38.336 27.433C38.0677 27.3474 37.8108 27.2218 37.5767 27.0562C37.8964 26.5995 39.0724 24.9269 39.609 24.1676C40.3968 23.0601 41.4929 21.8956 41.9838 21.8556C42.0124 21.8899 42.0352 21.9298 42.0523 21.9698C42.058 21.9869 42.0752 22.004 42.0866 22.0154C42.3092 22.495 42.5718 22.9517 42.8744 23.3855C42.5832 23.4312 42.0637 23.6025 41.5271 24.2418C40.8193 25.0924 40.1685 26.7993 40.0657 27.0791ZM38.226 25.6138L38.2265 25.6131L38.2277 25.6114C38.6383 25.027 39.0832 24.3939 39.3608 24.002C39.8917 23.2485 41.022 21.8727 41.7584 21.6101C41.5472 21.3931 41.3246 21.1819 41.0905 20.9878C39.926 20.8108 38.4189 22.3179 37.6939 23.0429C36.8946 23.8422 35.359 25.863 35.0793 26.2341C35.1307 26.4054 35.319 26.8906 35.77 27.1132C36.1639 27.3016 36.6663 27.2559 37.2657 26.9762C37.3672 26.836 37.7758 26.2544 38.226 25.6138ZM37.4904 22.8317C36.6569 23.6652 35.0813 25.7432 34.8359 26.0743C34.1166 26.2684 33.5457 26.2227 33.1461 25.9315C32.6437 25.5662 32.541 24.9097 32.5181 24.7042C32.7921 24.4359 34.1622 23.0829 35.2526 21.9298C36.4914 20.6168 38.2154 19.5607 38.9747 19.4579C39.5855 19.829 40.1735 20.24 40.7329 20.691C39.517 20.8051 38.1697 22.1467 37.4904 22.8317ZM32.2882 24.5045C32.528 24.2761 33.9266 22.9003 35.0341 21.7243C36.0902 20.6054 37.6201 19.555 38.5963 19.2354C38.5735 19.2239 38.5521 19.2139 38.5307 19.204C38.5093 19.194 38.4879 19.184 38.465 19.1726C37.9855 18.9499 37.4946 18.7501 36.9922 18.5789C36.5697 18.4704 35.9304 18.7501 35.0912 19.418C34.8286 19.6235 34.566 19.8519 34.3148 20.0859C33.8274 20.5337 33.3793 20.9984 33.0712 21.3179L33.0646 21.3247C32.7963 21.593 32.4995 21.8271 32.1741 22.0212C32.0142 22.1182 31.8544 22.2096 31.6945 22.2895C31.3863 22.4436 31.0666 22.5806 30.7412 22.7005C30.6042 22.7519 30.4729 22.7976 30.3587 22.8318C30.3218 22.8452 30.2888 22.8547 30.2575 22.8637L30.2575 22.8637L30.2575 22.8637C30.2355 22.8701 30.2143 22.8761 30.1931 22.8832C30.1246 22.906 30.0618 22.9232 30.0162 22.9346C30.0162 23.0887 30.0276 23.2371 30.0618 23.3856C30.0676 23.4198 30.0733 23.4541 30.0847 23.4883C30.1246 23.6253 30.1817 23.7566 30.2559 23.8765C30.3073 23.9679 30.3758 24.0478 30.45 24.122C30.5528 24.219 30.6727 24.299 30.7983 24.3618C30.8896 24.4017 30.9809 24.436 31.078 24.4645C31.3292 24.533 31.5918 24.5558 31.8544 24.5444C31.9971 24.5387 32.1455 24.5273 32.2882 24.5045ZM62.1129 22.906C62.073 23.0316 62.0216 23.1572 61.9531 23.2714L61.9302 23.3113C61.8332 23.4769 61.6962 23.6196 61.542 23.7338C60.9655 24.1448 60.2062 24.0078 60.0863 23.9793C59.721 23.7852 58.6763 22.8489 57.3405 21.5131C56.3643 20.5369 55.2282 19.8576 54.2178 19.635C54.2121 19.4066 54.2064 19.184 54.1893 18.967C54.181 18.8472 54.1667 18.7273 54.153 18.6118C54.1478 18.5677 54.1426 18.5243 54.1379 18.4818C54.1853 18.4677 54.2339 18.4537 54.283 18.4395L54.2837 18.4392L54.284 18.4392L54.2841 18.4391C54.3942 18.4073 54.5071 18.3745 54.6174 18.3391C54.6203 18.3391 54.6245 18.3405 54.6288 18.3419C54.6331 18.3434 54.6374 18.3448 54.6402 18.3448L54.6443 18.3457C54.7471 18.3695 56.6785 18.8161 58.0084 20.0174C58.4479 20.417 58.9103 20.7881 59.3899 21.1363C60.1491 21.6844 60.8741 22.084 61.485 22.3066C61.6163 22.3523 61.7476 22.3923 61.8789 22.4265C61.9873 22.455 62.0958 22.4722 62.2043 22.4836C62.1814 22.6263 62.1529 22.769 62.1129 22.906ZM57.5839 16.1641C56.368 15.2107 55.0264 14.4229 53.605 13.8235C52.0636 13.167 50.431 12.7388 48.7697 12.5562C48.5642 12.7503 48.3416 12.9215 48.0904 13.0528C48.7869 13.1042 49.4319 13.2298 49.9343 13.4182C52.3719 13.8806 54.6839 14.8796 56.6934 16.341C56.8058 16.3185 56.92 16.2961 57.0359 16.2732L57.036 16.2732C57.2145 16.2381 57.3971 16.2021 57.5839 16.1641ZM44.1848 10.5125C44.1848 9.09107 45.3379 7.94363 46.7594 7.94934C48.1808 7.94934 49.3283 9.10249 49.3226 10.524C49.3226 11.7285 48.4834 12.7675 47.3074 13.0301L47.2903 13.0358C47.1133 13.0757 46.9363 13.0929 46.7594 13.0929C46.4968 13.0929 46.2342 13.0529 45.983 12.973C44.9098 12.6247 44.1848 11.6314 44.1848 10.5125ZM44.747 12.5502C43.08 12.7443 41.4473 13.1667 39.906 13.8232C38.2448 14.5197 36.7034 15.473 35.3391 16.6433C35.6186 16.7004 35.8982 16.7631 36.1778 16.8259L36.1778 16.8259L36.1779 16.8259L36.1779 16.8259L36.1779 16.8259L36.178 16.8259L36.178 16.8259L36.178 16.8259L36.1781 16.826L36.1782 16.826C38.8784 14.6567 42.1838 13.3722 45.6432 13.1496C45.3064 13.0069 45.0039 12.8071 44.747 12.5502ZM26.8191 14.7025C26.6592 14.4798 26.5222 14.24 26.4023 13.9889C26.7392 14.2743 27.0988 14.5369 27.4756 14.7595C29.2281 15.8328 31.2262 16.2838 32.5963 16.4779C32.6819 16.4893 32.7675 16.5021 32.8532 16.515C32.9388 16.5278 33.0244 16.5406 33.1101 16.5521C33.6581 16.632 34.1833 16.7233 34.6799 16.8204C34.7396 16.8317 34.8007 16.8431 34.8619 16.8545L34.8619 16.8545L34.862 16.8545L34.862 16.8545L34.8621 16.8545L34.8621 16.8545L34.8626 16.8546C34.924 16.866 34.9854 16.8775 35.0453 16.8889C35.3307 16.946 35.6105 17.0031 35.8788 17.0658C36.0044 17.0944 36.1242 17.1229 36.2441 17.1515C36.3469 17.1743 36.4439 17.1971 36.541 17.2257C39.2183 17.8936 40.9252 18.7556 41.3762 19.7033C41.3876 19.7261 41.3991 19.7432 41.4219 19.7603C41.4847 20.2399 41.5932 20.7137 41.7473 21.1704C40.9424 20.394 39.5038 19.3379 38.5847 18.9098C38.0994 18.6814 37.6028 18.4816 37.0947 18.3103C37.0919 18.3103 37.089 18.3089 37.0862 18.3075L37.0862 18.3075L37.0823 18.3057C37.0807 18.3051 37.0791 18.3046 37.0776 18.3046C36.6951 18.1733 36.3183 18.0649 35.9473 17.9621C35.7874 17.9164 35.6219 17.8765 35.462 17.8422C35.3979 17.8262 35.3337 17.812 35.2685 17.7975L35.2685 17.7975L35.2684 17.7975C35.2176 17.7862 35.1663 17.7748 35.1138 17.7623L34.9938 17.7367L34.9937 17.7367C34.7668 17.6883 34.5427 17.6404 34.3146 17.5968L33.9664 17.5283C33.6926 17.4769 33.4131 17.4256 33.1336 17.3742L33.1329 17.3741C32.9102 17.3342 32.6876 17.2942 32.4593 17.2542C31.5801 17.0887 30.6782 16.906 29.7419 16.6434C28.1549 16.1867 27.2758 15.3361 26.8191 14.7025ZM29.6517 16.9232C28.8867 16.7063 27.8648 16.2781 27.0428 15.4275C26.8887 15.7815 26.5518 16.8148 27.5566 17.4941C27.7906 17.5283 29.3548 17.7396 30.8962 17.2372C30.4908 17.1459 30.0741 17.0431 29.6517 16.9232ZM27.5708 19.2868C27.331 18.6817 27.508 18.0366 27.5994 17.7969C28.0675 17.8596 29.8086 18.0366 31.4413 17.3516C31.6982 17.403 31.9551 17.4543 32.212 17.5C32.5031 17.5571 32.7885 17.6085 33.0739 17.6598L33.0739 17.6598L33.0739 17.6598L33.0739 17.6598L33.074 17.6598L33.074 17.6598L33.074 17.6598L33.7134 17.7797L33.7305 17.7854L33.6962 17.8026C32.9826 18.088 32.1492 18.7217 31.3785 19.3382C31.2815 19.4124 31.1844 19.4866 31.0817 19.5494C30.1112 20.1717 28.9295 20.3201 28.7125 20.3372C28.136 20.0975 27.7478 19.7435 27.5708 19.2868ZM28.8866 22.0097C29.0693 22.3408 29.4061 22.5635 29.8799 22.6719L29.907 22.6646C29.9801 22.6447 30.1158 22.6078 30.2909 22.5577C30.3398 22.5427 30.3912 22.5252 30.445 22.5068L30.4451 22.5068L30.4452 22.5068C30.4731 22.4973 30.5016 22.4875 30.5307 22.4778L30.5983 22.4521C30.701 22.4131 30.8138 22.3703 30.9303 22.3237C31.2843 22.181 31.6268 22.0154 31.9579 21.8213C32.1634 21.7014 32.3518 21.5701 32.5345 21.4217C32.6486 21.3304 32.7514 21.2333 32.8541 21.1306C33.4022 20.5597 34.2014 19.7319 35.0063 19.1154C35.4459 18.7786 35.8855 18.4989 36.2908 18.3619C36.1081 18.3105 35.9197 18.2591 35.7427 18.2134C35.5658 18.1678 35.3831 18.1221 35.2061 18.0821C35.1402 18.0696 35.076 18.0553 35.0125 18.0412C34.9606 18.0296 34.9093 18.0182 34.8579 18.0079L34.5839 17.9508C34.561 17.9565 34.5382 17.9565 34.5154 17.9508C34.3384 17.9166 34.1158 17.9623 33.8703 18.0536C33.6134 18.1564 33.3736 18.2819 33.1396 18.4247C32.5781 18.7681 32.0062 19.2208 31.6227 19.5244L31.5697 19.5664C31.3813 19.7148 31.1815 19.8461 30.976 19.9603C30.0797 20.4512 29.1207 20.594 28.8067 20.6282C28.7439 20.8566 28.6069 21.5016 28.8866 22.0097ZM62.9837 23.1914C66.7571 32.154 62.5555 42.4753 53.5929 46.2488C44.6302 50.0222 34.3089 45.8206 30.5355 36.858C28.84 32.8391 28.703 28.3292 30.1416 24.2132C30.1759 24.2532 30.2101 24.2932 30.2501 24.3331C30.3814 24.4644 30.5355 24.5672 30.7068 24.6414C27.7268 33.507 32.4993 43.1033 41.3649 46.0832C50.2305 49.0631 59.8268 44.2907 62.8067 35.4251C64.1197 31.5146 63.9599 27.256 62.3557 23.454C62.3443 23.4254 62.3315 23.3969 62.3186 23.3684C62.3058 23.3398 62.2929 23.3113 62.2815 23.2827C62.4014 23.0201 62.4756 22.7461 62.5099 22.4607C62.5252 22.4555 62.5417 22.4504 62.5599 22.4448L62.56 22.4448L62.5602 22.4447C62.5824 22.4378 62.6072 22.4301 62.6354 22.4207L62.6849 22.5264C62.7881 22.7469 62.8901 22.9649 62.9837 23.1914ZM63.2468 21.7986C63.4808 21.6502 63.6692 21.4503 63.8005 21.2106C63.9775 20.8566 63.9775 20.4342 63.7891 19.9547C62.6359 19.8462 61.734 19.5551 60.8719 18.9899L60.8206 18.9557C60.7395 18.9061 60.662 18.8495 60.5825 18.7914L60.5824 18.7913L60.518 18.7444C60.3296 18.6017 60.1298 18.4647 59.9243 18.3448C59.4162 18.0537 58.8739 17.8196 58.3087 17.6598C58.1375 17.6084 57.9662 17.5627 57.7893 17.5171L57.7265 17.5342L56.9215 17.7397H56.9158L56.8702 17.7511L56.6818 17.7968L56.5391 17.831L56.2139 17.9142L56.2134 17.9143L56.2133 17.9143C55.8609 18.0043 55.5185 18.0918 55.1861 18.1793C55.8826 18.3905 57.1956 18.8814 58.2117 19.7948C58.3887 19.9547 58.5771 20.1145 58.7712 20.2744C59.5818 20.9366 60.4895 21.5531 61.2716 21.8956C61.4086 21.9584 61.557 22.0155 61.6997 22.0612C61.9109 22.1354 62.1393 22.1754 62.3619 22.1868C62.3848 22.1811 62.4304 22.1696 62.5046 22.1468C62.5788 22.124 62.6759 22.0897 62.7844 22.0441C62.9442 21.9813 63.0983 21.8956 63.2468 21.7986ZM64.9789 18.7444C64.6877 19.3837 64.0141 19.6235 63.8771 19.6692C62.5869 19.5607 61.6393 19.2125 60.6973 18.516C60.5147 18.379 60.332 18.2591 60.1493 18.1449L60.1151 18.1221C59.8639 17.9737 59.6013 17.8367 59.333 17.7225C59.019 17.5855 58.6936 17.4713 58.3625 17.3743C58.5223 17.3343 58.6879 17.2886 58.8477 17.243C58.912 17.2269 58.9744 17.209 59.036 17.1914C59.0839 17.1777 59.1314 17.1641 59.1788 17.1516L59.2873 17.1231C59.7212 17.0032 60.1436 16.8719 60.5375 16.7406C60.5489 16.7463 60.566 16.7463 60.5775 16.7463L60.611 16.7448C60.9223 16.7303 63.3174 16.6183 64.8019 16.8434C65.1444 17.5969 65.2072 18.242 64.9789 18.7444ZM64.8355 16.5467C65.0581 16.2898 65.2294 15.993 65.3492 15.6733C65.589 15.0111 65.4977 14.3888 65.0752 13.8294C64.8926 14.012 64.6756 14.2175 64.4301 14.4402C63.7451 15.051 62.6833 15.8617 61.3931 16.4154C62.3122 16.3926 63.7794 16.3869 64.8355 16.5467Z" fill="#132321"/>
<path id="Path_3" d="M51.6386 16.9629C51.8498 16.9857 52.0553 17.0485 52.2437 17.1513C52.3179 17.1912 52.3864 17.2483 52.4492 17.3054C52.4891 17.3453 52.5234 17.391 52.5519 17.4367C52.5748 17.4766 52.5919 17.5166 52.609 17.5623C52.6718 17.745 52.6604 17.9676 52.5748 18.2302L52.1809 17.7392L52.021 17.5394C52.0096 17.5223 51.9925 17.5109 51.9811 17.5052C51.9297 17.4766 51.8612 17.4824 51.8155 17.5166C51.787 17.5394 51.7699 17.568 51.7641 17.6022C51.7527 17.6479 51.7641 17.6879 51.7927 17.7221L51.9069 17.8591L52.512 18.607C52.5405 18.6412 52.5805 18.6641 52.6262 18.6641H52.6433C52.6947 18.6583 52.7346 18.6241 52.7575 18.5784C52.9516 18.1446 52.9972 17.7678 52.8945 17.4595C52.8602 17.3625 52.8145 17.2768 52.7517 17.1969C52.689 17.1113 52.609 17.0371 52.5234 16.9743C52.158 16.706 51.6956 16.6717 51.6728 16.666C51.5929 16.666 51.5244 16.7288 51.5187 16.8087C51.5015 16.8887 51.5586 16.9572 51.6386 16.9629Z" fill="#132321"/>
</g>
</g>
</g>
</svg>
