<svg width="91" height="56" viewBox="0 0 91 56" fill="none" xmlns="http://www.w3.org/2000/svg">
<g id="Group 35" clip-path="url(#clip0_2022_68233)">
<g id="Logo">
<g id="Logo_2">
<g id="Group 2">
<path id="Shape" fill-rule="evenodd" clip-rule="evenodd" d="M26.8812 19.5161H65.0389C66.115 19.5161 67.0118 20.368 66.9669 21.4442V34.8958C66.9669 35.9719 66.115 36.8238 65.0389 36.8238H26.8812C25.8051 36.8238 24.9531 35.9719 24.9531 34.8958V21.4442C24.9531 20.368 25.8051 19.5161 26.8812 19.5161ZM36.7022 32.6088H41.1861V23.7308H36.7022V27.542H33.698V23.7308H29.2142V32.6088H33.698V28.7975H36.7022V32.6088ZM48.09 32.6088H43.6061V23.7308H48.09V32.6088ZM50.3782 32.6536H57.6869C60.2427 32.6536 62.5743 30.7256 62.5743 28.2146C62.5743 25.6588 60.2427 23.7308 57.6869 23.7308H50.3782V32.6536Z" fill="#132321"/>
<path id="Shape_2" fill-rule="evenodd" clip-rule="evenodd" d="M69.0753 20.4571C69.0753 20.9055 68.7166 21.2193 68.313 21.2193C67.9095 21.2193 67.5508 20.8606 67.5508 20.4571C67.5508 20.0087 67.9095 19.6948 68.313 19.6948C68.7166 19.6948 69.0753 20.0087 69.0753 20.4571ZM68.3608 19.8295C68.0021 19.8295 67.7331 20.0986 67.7331 20.4573C67.7331 20.816 68.0021 21.085 68.3608 21.085C68.7195 21.085 68.9886 20.816 68.9886 20.4573C68.9886 20.0986 68.7195 19.8295 68.3608 19.8295ZM68.1768 20.5021H68.3113L68.5355 20.8608H68.67L68.401 20.4572C68.5355 20.4572 68.6251 20.3675 68.6251 20.233C68.6251 20.0537 68.5355 19.964 68.3113 19.964H67.9974V20.8608H68.1319V20.5021H68.1768ZM68.179 20.0984V20.3674H68.3135C68.448 20.3674 68.5377 20.3674 68.5377 20.2329C68.5377 20.0984 68.448 20.0984 68.3583 20.0984H68.179Z" fill="#132321"/>
</g>
<g id="Group 2_2">
<path id="Shape_3" fill-rule="evenodd" clip-rule="evenodd" d="M26.8812 19.5161H65.0389C66.115 19.5161 67.0118 20.368 66.9669 21.4442V34.8958C66.9669 35.9719 66.115 36.8238 65.0389 36.8238H26.8812C25.8051 36.8238 24.9531 35.9719 24.9531 34.8958V21.4442C24.9531 20.368 25.8051 19.5161 26.8812 19.5161ZM36.7022 32.6088H41.1861V23.7308H36.7022V27.542H33.698V23.7308H29.2142V32.6088H33.698V28.7975H36.7022V32.6088ZM48.09 32.6088H43.6061V23.7308H48.09V32.6088ZM50.3782 32.6536H57.6869C60.2427 32.6536 62.5743 30.7256 62.5743 28.2146C62.5743 25.6588 60.2427 23.7308 57.6869 23.7308H50.3782V32.6536Z" fill="#132321"/>
<path id="Shape_4" fill-rule="evenodd" clip-rule="evenodd" d="M69.0753 20.4571C69.0753 20.9055 68.7166 21.2193 68.313 21.2193C67.9095 21.2193 67.5508 20.8606 67.5508 20.4571C67.5508 20.0087 67.9095 19.6948 68.313 19.6948C68.7166 19.6948 69.0753 20.0087 69.0753 20.4571ZM68.3608 19.8295C68.0021 19.8295 67.7331 20.0986 67.7331 20.4573C67.7331 20.816 68.0021 21.085 68.3608 21.085C68.7195 21.085 68.9886 20.816 68.9886 20.4573C68.9886 20.0986 68.7195 19.8295 68.3608 19.8295ZM68.1768 20.5021H68.3113L68.5355 20.8608H68.67L68.401 20.4572C68.5355 20.4572 68.6251 20.3675 68.6251 20.233C68.6251 20.0537 68.5355 19.964 68.3113 19.964H67.9974V20.8608H68.1319V20.5021H68.1768ZM68.179 20.0984V20.3674H68.3135C68.448 20.3674 68.5377 20.3674 68.5377 20.2329C68.5377 20.0984 68.448 20.0984 68.3583 20.0984H68.179Z" fill="#132321"/>
</g>
<path id="Path" d="M54.7617 24.5375V31.8462C56.6001 31.8462 57.6762 32.1601 57.6762 28.2143C57.6762 24.2237 56.4207 24.5375 54.7617 24.5375Z" fill="#132321"/>
</g>
</g>
</g>
<defs>
<clipPath id="clip0_2022_68233">
<rect width="89.9394" height="56" fill="white" transform="translate(0.757812)"/>
</clipPath>
</defs>
</svg>
