<svg width="91" height="56" viewBox="0 0 91 56" fill="none" xmlns="http://www.w3.org/2000/svg">
<g id="Group 45">
<g id="Group 38">
<g id="Group 2">
<path id="Fill 1" fill-rule="evenodd" clip-rule="evenodd" d="M33.2536 28.4917H36.4043V27.4449H33.2536V24.9148H37.4729V23.8672H32.0977V32.3129H37.651V31.2657H33.2536V28.4917Z" fill="#132321"/>
<path id="Fill 3" fill-rule="evenodd" clip-rule="evenodd" d="M47.5547 32.3125H48.6997V23.8672H47.5547V32.3125Z" fill="#132321"/>
<path id="Fill 4" fill-rule="evenodd" clip-rule="evenodd" d="M54.9532 23.7573C52.5218 23.7573 50.6016 25.7003 50.6016 28.0893C50.6016 30.4775 52.5218 32.4213 54.9532 32.4213C57.3846 32.4213 59.304 30.4775 59.304 28.0893C59.304 25.7003 57.3846 23.7573 54.9532 23.7573ZM54.9563 31.3523C53.1317 31.3523 51.7728 29.9008 51.7728 28.0893C51.7728 26.2773 53.1317 24.8254 54.9563 24.8254C56.774 24.8254 58.1281 26.2773 58.1281 28.0893C58.1281 29.9008 56.774 31.3523 54.9563 31.3523Z" fill="#132321"/>
<path id="Fill 5" fill-rule="evenodd" clip-rule="evenodd" d="M18.8377 23.8667H15.8633V32.312H17.0201V29.4987H18.8377C20.6982 29.4987 22.006 28.2218 22.006 26.6818C22.006 25.144 20.6982 23.8667 18.8377 23.8667ZM18.8053 28.4522H17.0208V24.9138H18.8053C20.0739 24.9138 20.8386 25.6947 20.8386 26.6821C20.8386 27.6712 20.0546 28.4522 18.8053 28.4522Z" fill="#132321"/>
<path id="Fill 6" fill-rule="evenodd" clip-rule="evenodd" d="M71.8266 23.8667H70.5708L67.1445 32.312H68.3729L69.1922 30.2704H73.2038L74.0254 32.312H75.2533L71.8266 23.8667ZM69.6237 29.2024L71.2008 25.2034L72.778 29.2024H69.6237Z" fill="#132321"/>
<path id="Fill 7" fill-rule="evenodd" clip-rule="evenodd" d="M43.2171 31.3528C41.3719 31.3528 39.9602 29.9018 39.9602 28.0898C39.9602 26.2783 41.3719 24.826 43.2171 24.826C44.1499 24.826 44.7314 25.1049 45.2853 25.393L45.7502 24.4724C45.0007 24.0206 44.0679 23.7578 43.19 23.7578C40.7499 23.7578 38.793 25.7012 38.793 28.0898C38.793 30.478 40.7499 32.4218 43.19 32.4218C44.125 32.4218 45.1081 32.1276 45.8846 31.6204L45.4237 30.7046C44.8457 31.0525 44.1752 31.3528 43.2171 31.3528Z" fill="#132321"/>
<path id="Fill 8" fill-rule="evenodd" clip-rule="evenodd" d="M63.8807 27.4259C62.7221 27.0404 61.9674 26.724 61.9674 25.9133C61.9674 25.2712 62.4672 24.8103 63.49 24.8103C64.1993 24.8103 64.9737 25.0661 65.4238 25.2703L65.8005 24.3139C65.2566 24.0538 64.3085 23.7578 63.4686 23.7578C61.8797 23.7578 60.7884 24.6278 60.7884 25.9382C60.7884 27.4735 62.2092 28.0702 63.2521 28.4163C64.3325 28.7747 65.2535 29.1309 65.2535 30.031C65.2535 30.8054 64.5769 31.341 63.4245 31.341C62.4585 31.341 61.4405 30.9315 60.8482 30.6229L60.4531 31.5614C61.2974 32.0739 62.4354 32.4218 63.4559 32.4218C65.1623 32.4218 66.4391 31.4584 66.4391 30.031C66.4391 28.5272 65.1391 27.8454 63.8807 27.4259Z" fill="#132321"/>
<path id="Fill 9" fill-rule="evenodd" clip-rule="evenodd" d="M29.8425 26.5098C29.8425 25.0859 28.6896 23.8667 27.0152 23.8667H23.75V32.3124H24.9059V29.1477H26.6851L28.7477 32.3124H30.1171V32.2945L27.9157 28.9779C29.0437 28.6872 29.8425 27.6648 29.8425 26.5098ZM24.9076 28.101V24.914H26.981C28.0112 24.914 28.6878 25.6199 28.6878 26.5099C28.6878 27.2677 28.0693 28.101 26.9649 28.101H24.9076Z" fill="#132321"/>
</g>
</g>
</g>
</svg>
