<?xml version="1.0" encoding="UTF-8" standalone="no"?>
<svg
   width="91pt"
   height="56pt"
   viewBox="0 0 91 56"
   version="1.1"
   id="svg9"
   sodipodi:docname="simac.svg"
   inkscape:version="1.3 (0e150ed, 2023-07-21)"
   xmlns:inkscape="http://www.inkscape.org/namespaces/inkscape"
   xmlns:sodipodi="http://sodipodi.sourceforge.net/DTD/sodipodi-0.dtd"
   xmlns="http://www.w3.org/2000/svg"
   xmlns:svg="http://www.w3.org/2000/svg">
  <defs
     id="defs9" />
  <sodipodi:namedview
     id="namedview9"
     pagecolor="#ffffff"
     bordercolor="#000000"
     borderopacity="0.25"
     inkscape:showpageshadow="2"
     inkscape:pageopacity="0.0"
     inkscape:pagecheckerboard="0"
     inkscape:deskcolor="#d1d1d1"
     inkscape:document-units="pt"
     inkscape:zoom="2.8405087"
     inkscape:cx="97.693769"
     inkscape:cy="87.48433"
     inkscape:window-width="1392"
     inkscape:window-height="1212"
     inkscape:window-x="0"
     inkscape:window-y="25"
     inkscape:window-maximized="0"
     inkscape:current-layer="svg9" />
  <g
     id="#000000ff"
     transform="matrix(0.0475382,0,0,0.0475382,28.432937,14)">
    <path
       fill="#000000"
       opacity="1"
       d="M 158.72,0 H 167.29 C 170.26,1.96 173.54,3.43 176.41,5.56 181.65,10.3 184.67,17.82 183.09,24.85 182.16,28.27 180.61,31.57 178.41,34.38 172.69,40.98 162.5,43.66 154.55,39.59 149.45,37.44 146.05,32.76 144.09,27.75 141.2,21.16 143.35,13.22 147.89,7.92 150.68,4.29 154.95,2.39 158.72,0 Z"
       id="path1" />
    <path
       fill="#000000"
       opacity="1"
       d="M 50.33,59.11 C 66.15,57.13 82.41,59.61 97.1,65.78 100.94,67.51 104.69,69.47 108.55,71.16 104.99,78.31 100.91,85.22 97.85,92.62 85.69,85.44 71.6,80.15 57.27,81.56 49.47,82.25 41.32,86.72 38.71,94.46 37.86,99.54 37.45,105.03 39.19,109.96 41.7,116.4 49.09,118.04 55.04,119.72 68.61,123.6 83.27,124.77 95.51,132.37 107.81,139.16 115.11,153.13 115.18,166.99 114.72,176.16 112.22,185.32 107.08,193 99.86,203.32 88.78,210.59 76.68,213.9 57.4,219.39 36.67,216.12 18.26,208.97 11.94,206.76 6.26,203.11 0,200.75 V 199.67 C 4.4,193.34 7.33,186.13 10.65,179.22 15.05,180.92 18.72,184.09 23.25,185.57 36.97,191.69 52.26,195.68 67.32,193.11 73.59,191.92 78.81,187.56 82.06,182.2 84.52,176.95 84.15,170.86 83.47,165.24 81.58,157.59 73.88,153.3 66.76,151.48 57.79,149.04 48.5,148.11 39.52,145.74 29.12,143.39 19.57,137.26 13.31,128.61 1.02,110.16 6.19,82.97 23.95,69.91 31.72,64.31 40.82,60.46 50.33,59.11 Z"
       id="path2" />
    <path
       fill="#000000"
       opacity="1"
       d="M 458.85,72.7 C 477.9,62.91 499.97,57.42 521.31,61.4 532.49,63.52 543.78,69.6 548.98,80.16 555.64,92.68 554.15,107.32 554.16,120.98 552.84,135.94 553.39,150.99 553.24,166 553.44,173.64 552.45,181.62 555.26,188.91 556.66,191.61 558.03,194.77 560.97,196.09 562.67,196.9 564.19,198.02 565.84,198.93 560.86,205.63 554.74,211.49 550.57,218.79 541.45,216.16 534.7,208.48 530.61,200.17 527.08,200.31 525.5,204.15 522.64,205.72 513.28,213.52 500.99,216.84 489,217.28 476.55,216.75 463.29,213.94 453.94,205.11 446.04,198.37 442.21,188.03 440.9,177.97 439.8,166.09 442.84,153.66 450.07,144.08 452.94,140.96 455.95,137.94 459.08,135.07 472.74,125.08 489.86,121.3 506.48,120.32 512.54,119.45 518.67,119.81 524.78,119.84 524.49,110.75 525.83,101.22 522.3,92.57 520.41,88.09 515.65,85.7 511.02,85.23 502.93,83.3 494.65,85.25 486.71,86.94 476.76,90.31 466.4,94.29 458.92,101.93 454.66,95.54 451.15,88.6 446.45,82.47 445.69,81.69 445.55,80.63 445.23,79.65 450.13,78.09 454.27,74.94 458.85,72.7 M 489.07,144.98 C 480.22,148.26 473.84,157.13 473.31,166.51 472.79,173.15 473.26,180.28 476.78,186.12 479.39,190.53 484.24,193.08 489.12,194.11 502.85,196.78 517.46,188.38 523.26,175.94 523.65,168.32 523.32,160.67 523.83,153.05 523.8,149.12 524.51,145.18 523.96,141.28 520.97,141.12 518,140.54 515,140.74 506.26,141.33 497.32,141.76 489.07,144.98 Z"
       id="path3" />
    <path
       fill="#000000"
       opacity="1"
       d="M 597.02,96.16 C 606.24,76.81 625.37,61.79 646.98,59.71 663.47,58.44 680.53,64.32 692.23,76.13 687.27,83.12 681.79,89.72 677.12,96.92 674.95,94.77 672.76,92.62 670.42,90.66 659.29,81.83 641.66,82.43 631.51,92.5 624.77,100.73 622.3,111.58 621.37,121.96 619.87,136.55 619.6,151.43 622.36,165.89 624.4,174.86 628.74,184.12 636.93,188.99 645.25,193.79 655.67,193.59 664.49,190.31 671.34,187.26 677.61,182.63 681.75,176.3 686.71,182.73 690.74,190.1 697,195.37 V 195.82 C 691.99,198.77 688.12,203.22 683.22,206.31 676.45,210.78 668.69,213.69 660.68,214.9 644.26,216.92 626.28,214.61 612.98,204.05 603.5,197.34 597.81,186.72 593.68,176.14 589.34,164.96 588.41,152.87 587.77,141 588.15,125.7 589.91,109.97 597.02,96.16 Z"
       id="path4" />
    <path
       fill="#000000"
       opacity="1"
       d="M 147.8,65.89 C 157.83,63.83 168,62.39 178.13,60.89 178.34,111.35 178.28,161.83 178.15,212.29 168.02,212.53 157.88,212.5 147.75,212.3 147.49,165.21 147.77,118.11 147.61,71.01 147.67,69.3 147.75,67.59 147.8,65.89 Z"
       id="path5" />
    <path
       fill="#000000"
       opacity="1"
       d="M 216.78,67.02 C 225.91,65.4 234.72,62.25 243.91,60.91 246.93,66.16 248.5,71.99 249.41,77.93 251.89,77.74 253.48,75.64 255.4,74.33 264.7,66.91 275.91,61.01 288,60.52 302.71,59.88 316.62,69 323.42,81.79 326.48,81.83 327.91,78.73 330.04,77.04 341.07,67.54 354.97,59.71 369.99,60.54 380.08,60.9 390.51,65.06 396.95,73.08 403.43,80.8 406.61,90.99 406.45,101.01 406.33,138.11 406.58,175.22 406.33,212.33 396.78,212.5 387.22,212.5 377.68,212.33 377.42,176.56 377.67,140.78 377.55,105.01 376.88,99.53 376.99,93.32 372.97,89.03 369.11,85.59 363.69,86.27 358.93,86.24 349.69,86.36 341.67,92.08 335.42,98.41 333.2,100.78 328.87,102.06 329.13,105.92 328.94,141.37 329.18,176.83 329.01,212.28 319.3,212.53 309.57,212.52 299.85,212.29 299.62,176.52 299.85,140.74 299.74,104.97 299.82,99.8 299.1,94.3 296,90 292.58,87.25 288.01,86.99 283.84,86.45 271.33,86.5 259.91,93.64 251.54,102.46 251.07,106.29 251.44,110.16 251.35,114 251.28,146.77 251.49,179.54 251.25,212.31 241.49,212.5 231.73,212.54 221.98,212.28 221.87,174.86 221.98,137.43 221.92,100 221.59,92.53 222.24,84.91 220.12,77.64 219.53,73.93 217.57,70.65 216.78,67.02 Z"
       id="path6" />
    <path
       fill="#000000"
       opacity="1"
       d="M 16.6,274.47 C 23.74,270.57 32.12,270.88 40,270.93 119.34,270.94 198.67,270.94 278,270.93 284.89,270.83 292.01,270.69 298.52,273.3 306.68,276.32 312.82,283.24 315.91,291.25 318.15,296.55 317.31,302.41 317.43,308 317.43,392.01 317.41,476.02 317.44,560.03 317.25,570.17 310.79,579.24 302.41,584.49 299.39,586.11 295.97,586.9 293.21,589 H 24.77 C 21.04,586.2 16.12,585.62 12.64,582.42 8.93,579.08 4.9,575.62 3.1,570.81 2.28,568.51 1.26,566.3 0,564.22 V 294.74 C 1.59,292.35 2.92,289.8 4.03,287.16 6.35,281.45 11.39,277.44 16.6,274.47 Z"
       id="path7" />
    <path
       fill="#000000"
       opacity="1"
       d="M 388.15,279.15 C 393.82,273.37 402.06,270.94 409.97,270.6 495.66,270.61 581.34,270.63 667.03,270.59 676.86,270.79 686.37,276.14 691.86,284.27 693.61,287.05 694.97,290.07 697,292.67 V 421.37 C 694.66,426.47 693.66,432.02 692.1,437.37 688,451.89 683.77,466.41 678.3,480.5 673.44,493.14 667.96,505.81 659.46,516.48 654.96,521.91 647.39,526.84 640.22,523.62 631.38,519.07 626.2,509.98 621.54,501.59 608.21,475.21 601.09,446.35 593.19,418.03 588.42,401.99 584.62,385.68 579.54,369.74 574.11,352.05 568.01,334.39 558.78,318.28 555.21,312.37 550.94,306.5 544.88,302.96 540.08,300.17 533.81,301.07 529.62,304.57 520.57,311.8 515.55,322.6 510.75,332.86 501.79,353.19 495.78,374.64 489.89,396.02 483.56,418.37 477.88,440.9 470.81,463.03 466.18,477.1 461.07,491.1 454.02,504.17 450.28,510.71 446.05,517.29 439.87,521.79 435.82,524.7 430.24,525.42 425.74,523.11 419.09,519.78 414.73,513.37 410.95,507.19 395.83,480.15 388.41,449.77 380.08,420.17 378.6,412.55 379.73,404.71 379.39,397 379.37,364.64 379.42,332.29 379.36,299.94 379.19,292.17 382.81,284.66 388.15,279.15 Z"
       id="path8" />
    <path
       fill="#000000"
       opacity="1"
       d="M 535.52,360.79 C 541.97,359.08 547.87,363.55 552.08,367.93 559.57,376.33 564.36,386.68 568.97,396.83 577.7,417.9 583.93,439.89 589.96,461.85 600.07,496.26 607.09,532.05 623.77,564.12 627.16,570.16 631,576.18 636.47,580.57 640.37,583.72 646.06,585.55 650.67,582.75 660.47,577.37 665.52,566.74 670.31,557.15 682.53,530.79 689.49,502.45 697,474.5 V 566.47 C 693.98,573.11 690.12,579.69 683.85,583.74 680.06,586.27 675.58,587.37 671.38,589 H 404.63 C 400.33,587.17 395.64,586.01 391.93,583.04 384.73,577.68 379.39,569.24 379.39,560.07 379.33,531.02 379.5,501.97 379.31,472.91 387.26,500.81 393.84,529.33 405.94,555.83 408.83,562.35 412.35,568.62 416.65,574.31 419.86,578.21 423.52,582.21 428.53,583.67 433.21,585.25 438.11,582.67 441.61,579.66 449.23,572.71 453.9,563.28 458.16,554.05 467.2,533.42 473.41,511.7 479.22,489.97 484.6,469.62 490.35,449.36 496.42,429.19 502.36,410.57 508.71,391.77 519.26,375.18 523.31,369.16 528.37,363.05 535.52,360.79 Z"
       id="path9" />
  </g>
</svg>
