<svg width="1920" height="1080" viewBox="0 0 1920 1080" fill="none" xmlns="http://www.w3.org/2000/svg">
<rect width="1920" height="1080" fill="#1D2F2C"/>
<path fill-rule="evenodd" clip-rule="evenodd" d="M1102.82 603.744L850.052 749.668L1003.7 771.454L1256.47 625.53L1102.82 603.744ZM1735.74 687.131L1594.28 667.878L1507.83 717.787L1649.28 737.04L1562.83 786.95L1421.38 767.696L1248.34 867.594L74.3474 707.965L506.885 458.261L620.05 473.602L273.965 673.397L344.759 682.985L517.665 583.166L630.83 598.508L457.787 698.405L528.581 707.992L874.529 508.276L987.694 523.618L641.609 723.413L740.562 736.838L1086.65 537.043L1355.47 573.555L1470.93 506.904L1584.09 522.246L1468.64 588.897L1382.19 638.806L1122.69 788.613L1221.77 802.112L1567.58 602.474L1822.2 637.069L1735.61 687.057L1735.74 687.131Z" fill="white" fill-opacity="0.12"/>
<rect width="32" height="40" transform="translate(896 573)" fill="#1D2F2C"/>
<rect width="32" height="40" transform="translate(992 573)" fill="#1D2F2C"/>
<rect width="32" height="40" transform="translate(864 533)" fill="#1D2F2C"/>
<rect width="32" height="40" transform="translate(832 493)" fill="#1D2F2C"/>
<rect width="32" height="40" transform="translate(800 453)" fill="#1D2F2C"/>
<rect width="32" height="40" transform="translate(1120 413)" fill="#1D2F2C"/>
<rect width="32" height="40" transform="translate(1152 373)" fill="#1D2F2C"/>
<rect width="32" height="40" transform="translate(1152 333)" fill="#1D2F2C"/>
<rect width="32" height="40" transform="translate(736 333)" fill="#1D2F2C"/>
<rect width="32" height="40" transform="translate(1152 293)" fill="#1D2F2C"/>
<rect width="32" height="40" transform="translate(736 293)" fill="#1D2F2C"/>
<rect width="32" height="40" transform="translate(1152 253)" fill="#1D2F2C"/>
<rect width="32" height="40" transform="translate(896 213)" fill="#1D2F2C"/>
<rect width="32" height="40" transform="translate(992 213)" fill="#1D2F2C"/>
<rect width="32" height="40" transform="translate(736 253)" fill="#1D2F2C"/>
<rect width="32" height="40" transform="translate(768 413)" fill="#1D2F2C"/>
<rect width="32" height="40" transform="translate(736 373)" fill="#1D2F2C"/>
<rect width="32" height="40" transform="translate(1024 533)" fill="#1D2F2C"/>
<rect width="32" height="40" transform="translate(1056 493)" fill="#1D2F2C"/>
<rect width="32" height="40" transform="translate(1088 453)" fill="#1D2F2C"/>
<rect width="64" height="40" transform="translate(928 613)" fill="#1D2F2C"/>
<rect width="64" height="40" transform="translate(736 213)" fill="#1D2F2C"/>
<rect width="96" height="40" transform="translate(800 173)" fill="#1D2F2C"/>
<rect width="96" height="40" transform="translate(1024 173)" fill="#1D2F2C"/>
<rect width="64" height="40" transform="translate(1120 213)" fill="#1D2F2C"/>
<rect width="64" height="40" transform="translate(928 253)" fill="#1D2F2C"/>
<rect width="128" height="40" transform="translate(992 253)" fill="#00D47E"/>
<rect width="128" height="40" transform="translate(896 293)" fill="#00D47E"/>
<rect width="128" height="40" transform="translate(992 333)" fill="#00D47E"/>
<rect width="128" height="40" transform="translate(832 373)" fill="#00D47E"/>
<rect width="128" height="40" transform="translate(960 373)" fill="#00D47E"/>
<rect width="128" height="40" transform="translate(864 493)" fill="#00D47E"/>
<rect width="128" height="40" transform="translate(800 413)" fill="#00D47E"/>
<rect width="128" height="40" transform="translate(896 453)" fill="#00D47E"/>
<rect width="128" height="40" transform="translate(928 413)" fill="#00D47E"/>
<rect width="128" height="40" transform="translate(864 333)" fill="#00D47E"/>
<rect width="96" height="40" transform="translate(800 213)" fill="#00D47E"/>
<rect width="96" height="40" transform="translate(768 333)" fill="#00D47E"/>
<rect width="64" height="40" transform="translate(768 253)" fill="#00D47E"/>
<rect width="64" height="40" transform="translate(832 293)" fill="#00D47E"/>
<rect width="96" height="40" transform="translate(1024 293)" fill="#00D47E"/>
<rect width="64" height="40" transform="translate(864 253)" fill="#00D47E"/>
<rect width="32" height="40" transform="translate(768 293)" fill="#00D47E"/>
<rect width="32" height="40" transform="translate(800 293)" fill="white"/>
<rect width="32" height="40" transform="translate(832 253)" fill="white"/>
<rect width="64" height="40" transform="translate(896 533)" fill="#00D47E"/>
<rect width="64" height="40" transform="translate(768 373)" fill="#00D47E"/>
<rect width="64" height="40" transform="translate(832 453)" fill="#00D47E"/>
<rect width="64" height="40" transform="translate(1024 213)" fill="#00D47E"/>
<rect width="32" height="40" transform="translate(1088 213)" fill="#FFD621"/>
<rect width="32" height="40" transform="translate(1120 253)" fill="#FFD621"/>
<rect width="32" height="40" transform="translate(1120 293)" fill="#FFD621"/>
<rect width="32" height="40" transform="translate(1120 333)" fill="#FFD621"/>
<rect width="64" height="40" transform="translate(1088 373)" fill="#FFD621"/>
<rect width="64" height="40" transform="translate(928 573)" fill="#FFD621"/>
<rect width="64" height="40" transform="translate(1056 413)" fill="#FFD621"/>
<rect width="64" height="40" transform="translate(1024 453)" fill="#FFD621"/>
<rect width="64" height="40" transform="translate(992 493)" fill="#FFD621"/>
<rect width="64" height="40" transform="translate(960 533)" fill="#FFD621"/>
</svg>
