<?xml version="1.0" standalone="no"?>
<!DOCTYPE svg PUBLIC "-//W3C//DTD SVG 20010904//EN"
 "http://www.w3.org/TR/2001/REC-SVG-20010904/DTD/svg10.dtd">
<svg version="1.0" xmlns="http://www.w3.org/2000/svg"
 width="700.000000pt" height="700.000000pt" viewBox="0 0 700.000000 700.000000"
 preserveAspectRatio="xMidYMid meet">
<metadata>
Created by potrace 1.14, written by Peter Selinger 2001-2017
</metadata>
<g transform="translate(0.000000,700.000000) scale(0.100000,-0.100000)"
fill="#000000" stroke="none">
<path d="M0 3500 l0 -3500 3500 0 3500 0 0 3500 0 3500 -3500 0 -3500 0 0
-3500z m6188 2803 l-3 -286 -282 -176 -283 -176 0 -283 c0 -224 3 -282 13
-276 24 15 512 317 535 332 l22 14 0 -288 0 -289 -282 -176 -283 -176 -3 -574
-2 -574 -2382 -1480 c-1310 -814 -2387 -1481 -2395 -1483 -11 -3 -13 237 -13
1426 l0 1429 220 137 c122 75 227 139 235 143 13 4 15 -141 17 -1135 l3 -1141
138 86 137 85 0 572 0 572 219 137 c120 75 226 139 235 143 15 6 16 -41 16
-560 0 -311 3 -566 8 -565 4 0 66 37 137 83 l130 82 3 1146 2 1147 222 138
c122 76 225 140 230 141 4 2 8 -510 8 -1137 0 -628 2 -1141 5 -1141 3 0 93 54
200 121 l195 121 0 1142 c0 738 3 1145 10 1152 5 5 253 160 549 344 l540 335
3 385 3 384 220 138 c121 76 223 138 228 138 4 0 7 -684 7 -1520 0 -836 3
-1520 6 -1520 3 0 93 54 200 121 l194 121 2 1146 3 1146 510 318 c281 174 513
317 518 318 4 0 6 -129 5 -287z"/>
<path d="M3938 4592 l-308 -187 0 -832 c0 -458 3 -833 8 -832 4 0 144 85 312
187 l305 187 3 833 c1 457 -1 832 -5 832 -5 -1 -146 -85 -315 -188z"/>
</g>
</svg>
